<?xml version="1.0" encoding="UTF-8" standalone="no"?>
<!DOCTYPE svg PUBLIC "-//W3C//DTD SVG 1.1//EN" "http://www.w3.org/Graphics/SVG/1.1/DTD/svg11.dtd">
<svg width="100%" height="100%" viewBox="0 0 16 16" version="1.1" xmlns="http://www.w3.org/2000/svg" xmlns:xlink="http://www.w3.org/1999/xlink" xml:space="preserve" xmlns:serif="http://www.serif.com/" style="fill-rule:evenodd;clip-rule:evenodd;stroke-linejoin:round;stroke-miterlimit:2;">
    <rect id="ObjJ" x="0" y="0" width="16" height="16" style="fill:none;"/>
    <clipPath id="_clip1">
        <rect x="0" y="0" width="16" height="16"/>
    </clipPath>
    <g clip-path="url(#_clip1)">
        <rect x="2.999" y="0.946" width="10.207" height="7.054" style="fill:none;"/>
        <clipPath id="_clip2">
            <rect x="2.999" y="0.946" width="10.207" height="7.054"/>
        </clipPath>
        <g clip-path="url(#_clip2)">
            <g id="DocIcon--Symbol-" serif:id="DocIcon (Symbol)">
                <path d="M13.064,15.999L2.999,15.999L2.999,5.978L8.032,5.978L8.032,0.946L13.064,0.946L13.064,15.999ZM7.03,4.976L2.999,4.976L2.999,4.974L7.03,0.974L7.03,4.976Z" style="fill:rgb(135,147,154);"/>
            </g>
        </g>
        <rect x="0.846" y="8.839" width="16" height="7.416" style="fill:rgb(226,84,11);fill-opacity:0.8;"/>
        <g id="Text" opacity="0.85">
            <path d="M2.253,12.609C2.253,11.836 2.445,11.232 2.83,10.795C3.214,10.358 3.71,10.14 4.318,10.14C4.716,10.14 5.075,10.242 5.395,10.447C5.714,10.653 5.958,10.939 6.125,11.306C6.293,11.673 6.377,12.089 6.377,12.555C6.377,13.027 6.289,13.449 6.112,13.821C5.936,14.194 5.686,14.476 5.362,14.667C5.039,14.858 4.69,14.954 4.315,14.954C3.909,14.954 3.546,14.848 3.227,14.637C2.907,14.425 2.665,14.136 2.5,13.77C2.336,13.404 2.253,13.017 2.253,12.609ZM2.841,12.618C2.841,13.179 2.981,13.621 3.261,13.943C3.54,14.266 3.891,14.427 4.312,14.427C4.742,14.427 5.095,14.264 5.373,13.939C5.65,13.613 5.789,13.15 5.789,12.552C5.789,12.173 5.729,11.842 5.611,11.56C5.492,11.277 5.319,11.058 5.09,10.903C4.862,10.747 4.605,10.67 4.321,10.67C3.917,10.67 3.569,10.819 3.278,11.119C2.987,11.418 2.841,11.918 2.841,12.618Z" style="fill:white;fill-rule:nonzero;stroke:white;stroke-width:0.45px;"/>
            <path d="M8.135,14.875L7.644,14.875L7.644,10.222L8.174,10.222L8.174,11.882C8.397,11.579 8.682,11.428 9.029,11.428C9.222,11.428 9.404,11.47 9.575,11.553C9.747,11.637 9.888,11.754 9.999,11.906C10.109,12.057 10.196,12.24 10.259,12.453C10.322,12.667 10.353,12.895 10.353,13.139C10.353,13.716 10.221,14.163 9.956,14.478C9.691,14.793 9.374,14.951 9.003,14.951C8.634,14.951 8.345,14.785 8.135,14.453L8.135,14.875ZM8.129,13.164C8.129,13.568 8.18,13.86 8.282,14.04C8.449,14.334 8.675,14.481 8.959,14.481C9.19,14.481 9.39,14.373 9.559,14.156C9.728,13.939 9.812,13.616 9.812,13.186C9.812,12.746 9.731,12.422 9.569,12.212C9.407,12.003 9.212,11.898 8.982,11.898C8.751,11.898 8.551,12.006 8.382,12.223C8.214,12.44 8.129,12.754 8.129,13.164Z" style="fill:white;fill-rule:nonzero;stroke:white;stroke-width:0.45px;"/>
            <path d="M11.376,13.555L11.891,13.478C11.905,13.834 11.966,14.077 12.076,14.208C12.186,14.34 12.338,14.405 12.532,14.405C12.675,14.405 12.799,14.37 12.903,14.299C13.007,14.228 13.078,14.132 13.117,14.01C13.157,13.888 13.176,13.694 13.176,13.428L13.176,10.222L13.747,10.222L13.747,13.393C13.747,13.782 13.703,14.084 13.616,14.297C13.529,14.511 13.39,14.674 13.201,14.786C13.012,14.898 12.79,14.954 12.535,14.954C12.156,14.954 11.867,14.837 11.666,14.602C11.465,14.367 11.368,14.018 11.376,13.555Z" style="fill:white;fill-rule:nonzero;stroke:white;stroke-width:0.45px;"/>
        </g>
    </g>
</svg>
