<?xml version="1.0" encoding="UTF-8" standalone="no"?><!DOCTYPE svg PUBLIC "-//W3C//DTD SVG 1.1//EN" "http://www.w3.org/Graphics/SVG/1.1/DTD/svg11.dtd"><svg width="100%" height="100%" viewBox="0 0 1024 1024" version="1.1" xmlns="http://www.w3.org/2000/svg" xmlns:xlink="http://www.w3.org/1999/xlink" xml:space="preserve" xmlns:serif="http://www.serif.com/" style="fill-rule:evenodd;clip-rule:evenodd;stroke-linejoin:round;stroke-miterlimit:2;"><g id="Icon--Flat-" serif:id="Icon (Flat)"><circle cx="512" cy="512" r="478.822" style="fill:#fff;"/><circle cx="512" cy="512" r="432.809" style="fill:#e95c00;"/><g><g id="Group"><path id="Curve" d="M794.74,744.212l-565.48,0l41.591,-115.227c8.664,-24.568 33.69,-27.077 33.69,-27.077l207.459,-4.537l207.458,4.537c0,0 25.027,2.509 33.69,27.077l41.592,115.227Z" style="fill:#fff;"/><path id="Curve1" serif:id="Curve" d="M270.085,807.445c-24.428,0 -44.259,-20.434 -44.259,-45.602c0,-25.169 19.831,-45.603 44.259,-45.604l483.83,0c24.428,0.002 44.259,20.435 44.259,45.604c0,25.168 -19.832,45.602 -44.259,45.602l-483.83,0Z" style="fill:#fff;"/><g id="Group1" serif:id="Group"><g id="Group2" serif:id="Group"><path id="Curve2" serif:id="Curve" d="M546.669,653.724c0.734,-3.847 -1.795,-6.972 -5.643,-6.972l-142.395,0c-3.847,0 -7.567,3.125 -8.301,6.972l-5.773,30.279c-0.734,3.848 1.795,6.972 5.643,6.972l142.394,0c3.849,0 7.568,-3.124 8.302,-6.972l5.773,-30.279Z" style="fill:#e95c00;"/><path id="Rectangle" d="M518.141,652.874l-122.97,0l-0.72,3.774l122.971,0l0.719,-3.774Z" style="fill:#fff;"/><path id="Rectangle1" serif:id="Rectangle" d="M516.445,661.771l-122.971,0l-0.719,3.774l122.97,0l0.72,-3.774Z" style="fill:#fff;"/><path id="Rectangle2" serif:id="Rectangle" d="M514.748,670.669l-122.97,0l-0.72,3.774l122.971,0l0.719,-3.774Z" style="fill:#fff;"/><path id="Rectangle3" serif:id="Rectangle" d="M513.052,679.566l-122.971,0l-0.719,3.774l122.97,0l0.72,-3.774Z" style="fill:#fff;"/></g><g id="Group3" serif:id="Group"><path id="Curve3" serif:id="Curve" d="M501.663,653.724c-0.734,-3.847 1.795,-6.972 5.643,-6.972l118.384,0c3.848,0 7.568,3.125 8.301,6.972l5.773,30.279c0.734,3.848 -1.795,6.972 -5.643,6.972l-118.383,0c-3.848,0 -7.568,-3.124 -8.302,-6.972l-5.773,-30.279Z" style="fill:#e95c00;"/><path id="Rectangle4" serif:id="Rectangle" d="M497.551,652.874l131.6,0l0.719,3.774l-131.599,0l-0.72,-3.774Z" style="fill:#fff;"/><path id="Rectangle5" serif:id="Rectangle" d="M499.248,661.771l131.599,0l0.72,3.774l-131.6,0l-0.719,-3.774Z" style="fill:#fff;"/><path id="Rectangle6" serif:id="Rectangle" d="M501.663,670.669l130.88,0l0.72,3.774l-130.88,0l-0.72,-3.774Z" style="fill:#fff;"/><path id="Rectangle7" serif:id="Rectangle" d="M500.943,679.566l133.296,0l0.72,3.774l-133.297,0l-0.719,-3.774Z" style="fill:#fff;"/></g></g></g><path id="Curve4" serif:id="Curve" d="M632.629,632.116l-240.936,0c0,0 -6.029,-0.49 -7.759,-1.887c-1.731,-1.398 -2.624,-6.501 -2.624,-6.501l-33.791,-198.592l329.283,0l-33.79,198.592c0,0 -0.894,5.103 -2.625,6.501c-1.724,1.393 -7.718,1.884 -7.758,1.887Z" style="fill:#fff;"/><path id="Curve5" serif:id="Curve" d="M788.474,322.417l-552.281,0c0,-154.593 224.909,-160.933 276.14,-160.99l1.233,0.003c53.499,0.163 274.908,7.601 274.908,160.987Z" style="fill:#fff;"/><path id="Curve6" serif:id="Curve" d="M511.127,449.967c-205.217,-0.223 -274.934,-57.291 -274.934,-127.55c0,-70.397 87.323,-124.152 274.947,-124.152l2.194,0.002c186.128,0.418 275.14,54.028 275.14,124.15c0,70.397 -69.99,127.55 -276.141,127.55l-1.206,0Z" style="fill:#fff;"/><g id="Group4" serif:id="Group"><circle id="Ellipse" cx="512.332" cy="324.115" r="101.02" style="fill:#e95c00;"/><circle id="Ellipse1" serif:id="Ellipse" cx="512.83" cy="324.115" r="89.46" style="fill:#fff;"/><circle id="Ellipse2" serif:id="Ellipse" cx="512.332" cy="324.115" r="84.835" style="fill:#e95c00;"/><path id="Curve7" serif:id="Curve" d="M514.247,260.441l0.615,0.005l0.306,0.004l0.307,0.005l0.305,0.006l0.305,0.007l0.304,0.009l0.303,0.01l0.606,0.022l0.301,0.013l0.301,0.015l0.302,0.016l0.298,0.016l0.301,0.018l0.297,0.02l0.299,0.02l0.297,0.022l0.297,0.022l0.295,0.023l0.297,0.025l0.294,0.027l0.295,0.027l0.293,0.028l0.294,0.03l0.583,0.061l0.291,0.034l0.291,0.033l0.29,0.036l0.289,0.035l0.289,0.038l0.288,0.038l0.286,0.04l0.574,0.081l0.285,0.043l0.568,0.089l0.284,0.045l0.283,0.047l0.282,0.048l0.281,0.049l0.281,0.05l0.28,0.052l0.28,0.052l0.279,0.053l0.278,0.054l0.278,0.055l0.276,0.057l0.277,0.058l0.276,0.057l0.548,0.121l0.275,0.061l0.273,0.062l0.543,0.128l0.271,0.065l0.271,0.066l0.269,0.068l0.269,0.069l0.268,0.069l0.269,0.07l0.266,0.071l0.532,0.145l0.266,0.075l0.264,0.075l0.263,0.075l0.263,0.078l0.262,0.077l0.261,0.079l0.262,0.08l0.519,0.162l0.26,0.083l0.257,0.084l0.258,0.083l0.257,0.086l0.256,0.086l0.255,0.086l0.509,0.178l0.253,0.089l0.504,0.182l0.251,0.093l0.251,0.093l0.25,0.094l0.25,0.094l0.248,0.096l0.247,0.096l0.248,0.099l0.246,0.097l0.246,0.099l0.244,0.1l0.245,0.101l0.244,0.101l0.242,0.103l0.242,0.102l0.482,0.209l0.48,0.212l0.239,0.107l0.475,0.216l0.236,0.11l0.236,0.11l0.235,0.111l0.467,0.224l0.233,0.113l0.232,0.115l0.231,0.114l0.232,0.116l0.23,0.115l0.228,0.117l0.229,0.118l0.228,0.118l0.452,0.239l0.227,0.12l0.225,0.122l0.448,0.244l0.222,0.123l0.443,0.248l0.44,0.251l0.219,0.127l0.436,0.256l0.216,0.128l0.217,0.129l0.215,0.129l0.215,0.13l0.214,0.132l0.213,0.131l0.211,0.132l0.213,0.133l0.421,0.268l0.209,0.134l0.209,0.135l0.208,0.137l0.413,0.273l0.411,0.275l0.408,0.278l0.202,0.141l0.203,0.14l0.602,0.424l0.198,0.143l0.199,0.144l0.197,0.143l0.196,0.145l0.197,0.144l0.195,0.145l0.194,0.146l0.194,0.145l0.193,0.148l0.192,0.146l0.192,0.148l0.191,0.149l0.379,0.297l0.188,0.149l0.188,0.15l0.187,0.151l0.187,0.15l0.184,0.153l0.185,0.151l0.184,0.153l0.184,0.152l0.182,0.153l0.182,0.154l0.181,0.155l0.18,0.153l0.18,0.155l0.178,0.155l0.177,0.157l0.179,0.156l0.352,0.312l0.174,0.158l0.174,0.157l0.346,0.317l0.171,0.159l0.173,0.159l0.339,0.319l0.337,0.32l0.167,0.161l0.166,0.162l0.167,0.162l0.164,0.161l0.165,0.162l0.164,0.163l0.162,0.163l0.162,0.163l0.162,0.163l0.16,0.164l0.159,0.165l0.159,0.163l0.159,0.165l0.157,0.165l0.156,0.166l0.157,0.165l0.31,0.332l0.152,0.166l0.154,0.167l0.151,0.166l0.303,0.335l0.15,0.168l0.149,0.168l0.442,0.505l0.291,0.337l0.145,0.17l0.144,0.17l0.142,0.168l0.142,0.171l0.283,0.34l0.14,0.171l0.139,0.169l0.275,0.342l0.137,0.171l0.137,0.172l0.135,0.171l0.134,0.173l0.134,0.171l0.136,0.177l0.261,0.339l0.261,0.346l0.257,0.345l0.255,0.346l0.252,0.347l0.248,0.347l0.245,0.348l0.244,0.347l0.238,0.348l0.236,0.349l0.234,0.349l0.23,0.349l0.228,0.35l0.223,0.349l0.222,0.35l0.218,0.35l0.215,0.351l0.211,0.35l0.21,0.35l0.205,0.35l0.203,0.352l0.2,0.351l0.196,0.35l0.194,0.351l0.191,0.35l0.187,0.351l0.184,0.35l0.181,0.35l0.179,0.35l0.175,0.351l0.173,0.349l0.168,0.349l0.166,0.351l0.164,0.348l0.158,0.349l0.158,0.35l0.154,0.348l0.15,0.348l0.147,0.348l0.144,0.348l0.142,0.347l0.137,0.347l0.136,0.347l0.131,0.345l0.129,0.346l0.126,0.345l0.123,0.346l0.118,0.344l0.117,0.345l0.113,0.343l0.109,0.344l0.106,0.344l0.104,0.342l0.1,0.341l0.096,0.342l0.094,0.342l0.091,0.341l0.086,0.342l0.084,0.339l0.08,0.341l0.077,0.34l0.073,0.339l0.068,0.329l0.035,0.179l0.033,0.17l0.032,0.17l0.031,0.168l0.031,0.17l0.029,0.168l0.028,0.17l0.027,0.169l0.028,0.169l0.025,0.169l0.025,0.168l0.023,0.17l0.024,0.169l0.022,0.168l0.021,0.169l0.019,0.168l0.019,0.17l0.018,0.168l0.018,0.169l0.032,0.337l0.013,0.17l0.014,0.168l0.012,0.169l0.011,0.168l0.01,0.17l0.01,0.168l0.007,0.142l-18.075,0.103l0.006,-0.087l0.007,-0.06l0.006,-0.063l0.006,-0.064l0.005,-0.064l0.005,-0.066l0.005,-0.068l0.003,-0.069l0.004,-0.069l0.004,-0.071l0.002,-0.072l0.003,-0.073l0.002,-0.074l0.001,-0.075l0.002,-0.078l0.001,-0.077l0,-0.079l0,-0.079l-0.001,-0.081l-0.002,-0.082l-0.001,-0.083l-0.002,-0.083l-0.003,-0.085l-0.004,-0.086l-0.003,-0.086l-0.004,-0.089l-0.005,-0.088l-0.004,-0.08l-0.013,-0.192l-0.015,-0.186l-0.016,-0.189l-0.019,-0.194l-0.021,-0.196l-0.023,-0.2l-0.025,-0.203l-0.029,-0.205l-0.029,-0.209l-0.033,-0.213l-0.035,-0.214l-0.038,-0.219l-0.039,-0.22l-0.042,-0.224l-0.046,-0.226l-0.046,-0.228l-0.05,-0.231l-0.052,-0.234l-0.055,-0.236l-0.056,-0.238l-0.06,-0.241l-0.062,-0.243l-0.065,-0.246l-0.067,-0.247l-0.07,-0.248l-0.072,-0.253l-0.075,-0.252l-0.078,-0.256l-0.08,-0.257l-0.082,-0.258l-0.085,-0.261l-0.087,-0.262l-0.091,-0.263l-0.093,-0.266l-0.095,-0.267l-0.099,-0.268l-0.101,-0.269l-0.103,-0.272l-0.106,-0.272l-0.109,-0.274l-0.111,-0.276l-0.114,-0.275l-0.117,-0.278l-0.118,-0.278l-0.123,-0.28l-0.125,-0.281l-0.126,-0.282l-0.131,-0.281l-0.132,-0.284l-0.136,-0.284l-0.138,-0.286l-0.14,-0.285l-0.142,-0.287l-0.147,-0.288l-0.149,-0.287l-0.151,-0.288l-0.154,-0.289l-0.156,-0.291l-0.16,-0.29l-0.161,-0.29l-0.165,-0.29l-0.167,-0.292l-0.175,-0.296l-0.082,-0.142l-0.086,-0.146l-0.088,-0.147l-0.088,-0.145l-0.089,-0.146l-0.089,-0.146l-0.09,-0.147l-0.091,-0.146l-0.091,-0.146l-0.092,-0.147l-0.094,-0.146l-0.093,-0.147l-0.094,-0.146l-0.096,-0.146l-0.095,-0.148l-0.097,-0.146l-0.096,-0.147l-0.098,-0.146l-0.098,-0.146l-0.099,-0.147l-0.1,-0.146l-0.1,-0.147l-0.101,-0.146l-0.102,-0.146l-0.102,-0.147l-0.104,-0.146l-0.103,-0.146l-0.105,-0.147l-0.104,-0.146l-0.106,-0.145l-0.107,-0.147l-0.107,-0.146l-0.108,-0.145l-0.108,-0.146l-0.11,-0.146l-0.109,-0.146l-0.111,-0.145l-0.112,-0.145l-0.112,-0.147l-0.112,-0.145l-0.114,-0.145l-0.113,-0.145l-0.116,-0.145l-0.116,-0.144l-0.115,-0.145l-0.117,-0.144l-0.118,-0.145l-0.118,-0.144l-0.118,-0.144l-0.121,-0.145l-0.12,-0.143l-0.121,-0.144l-0.122,-0.144l-0.122,-0.144l-0.124,-0.142l-0.123,-0.143l-0.124,-0.144l-0.125,-0.143l-0.127,-0.141l-0.127,-0.143l-0.126,-0.142l-0.128,-0.142l-0.13,-0.141l-0.129,-0.143l-0.13,-0.14l-0.13,-0.142l-0.132,-0.141l-0.133,-0.14l-0.133,-0.141l-0.133,-0.14l-0.134,-0.14l-0.135,-0.14l-0.137,-0.139l-0.136,-0.14l-0.137,-0.139l-0.137,-0.139l-0.139,-0.138l-0.139,-0.139l-0.141,-0.138l-0.14,-0.138l-0.141,-0.137l-0.143,-0.137l-0.143,-0.138l-0.143,-0.136l-0.144,-0.137l-0.146,-0.135l-0.146,-0.137l-0.146,-0.135l-0.147,-0.135l-0.147,-0.136l-0.149,-0.134l-0.15,-0.134l-0.15,-0.134l-0.15,-0.134l-0.152,-0.133l-0.152,-0.132l-0.154,-0.133l-0.152,-0.132l-0.155,-0.133l-0.155,-0.131l-0.156,-0.131l-0.157,-0.131l-0.157,-0.131l-0.158,-0.13l-0.159,-0.129l-0.159,-0.131l-0.16,-0.129l-0.161,-0.128l-0.163,-0.128l-0.162,-0.128l-0.163,-0.127l-0.164,-0.128l-0.165,-0.127l-0.165,-0.126l-0.166,-0.126l-0.167,-0.126l-0.167,-0.124l-0.169,-0.125l-0.168,-0.125l-0.17,-0.123l-0.171,-0.124l-0.171,-0.123l-0.172,-0.122l-0.174,-0.123l-0.173,-0.121l-0.175,-0.121l-0.174,-0.12l-0.176,-0.121l-0.177,-0.119l-0.177,-0.121l-0.179,-0.118l-0.178,-0.118l-0.18,-0.118l-0.181,-0.118l-0.18,-0.117l-0.182,-0.117l-0.182,-0.115l-0.185,-0.116l-0.183,-0.114l-0.186,-0.115l-0.186,-0.114l-0.185,-0.113l-0.189,-0.114l-0.187,-0.113l-0.189,-0.11l-0.189,-0.112l-0.191,-0.111l-0.191,-0.111l-0.192,-0.109l-0.193,-0.11l-0.193,-0.108l-0.194,-0.108l-0.196,-0.107l-0.195,-0.107l-0.197,-0.107l-0.197,-0.106l-0.198,-0.106l-0.199,-0.104l-0.201,-0.104l-0.2,-0.104l-0.201,-0.102l-0.203,-0.102l-0.203,-0.102l-0.202,-0.101l-0.206,-0.101l-0.205,-0.1l-0.206,-0.099l-0.206,-0.099l-0.208,-0.098l-0.209,-0.097l-0.209,-0.098l-0.211,-0.096l-0.211,-0.095l-0.212,-0.095l-0.213,-0.094l-0.212,-0.093l-0.214,-0.094l-0.216,-0.092l-0.216,-0.091l-0.217,-0.091l-0.217,-0.091l-0.218,-0.088l-0.219,-0.09l-0.22,-0.088l-0.222,-0.087l-0.221,-0.087l-0.223,-0.086l-0.222,-0.085l-0.224,-0.085l-0.225,-0.084l-0.227,-0.083l-0.226,-0.083l-0.227,-0.082l-0.229,-0.08l-0.229,-0.081l-0.23,-0.079l-0.231,-0.079l-0.231,-0.078l-0.233,-0.078l-0.234,-0.076l-0.233,-0.076l-0.235,-0.074l-0.236,-0.075l-0.237,-0.074l-0.238,-0.073l-0.238,-0.071l-0.239,-0.071l-0.24,-0.07l-0.241,-0.069l-0.243,-0.069l-0.242,-0.068l-0.243,-0.068l-0.245,-0.066l-0.246,-0.065l-0.246,-0.064l-0.247,-0.064l-0.248,-0.063l-0.249,-0.063l-0.25,-0.061l-0.25,-0.06l-0.252,-0.059l-0.252,-0.059l-0.253,-0.058l-0.254,-0.057l-0.256,-0.055l-0.256,-0.055l-0.257,-0.055l-0.257,-0.054l-0.258,-0.051l-0.259,-0.052l-0.261,-0.05l-0.261,-0.051l-0.262,-0.048l-0.263,-0.048l-0.263,-0.047l-0.266,-0.046l-0.266,-0.046l-0.265,-0.043l-0.269,-0.044l-0.268,-0.042l-0.269,-0.041l-0.269,-0.04l-0.272,-0.039l-0.272,-0.039l-0.273,-0.038l-0.273,-0.037l-0.276,-0.034l-0.275,-0.035l-0.276,-0.034l-0.278,-0.032l-0.278,-0.032l-0.279,-0.029l-0.28,-0.03l-0.281,-0.028l-0.283,-0.029l-0.283,-0.025l-0.283,-0.026l-0.285,-0.024l-0.285,-0.023l-0.287,-0.022l-0.288,-0.022l-0.287,-0.02l-0.291,-0.018l-0.29,-0.019l-0.29,-0.017l-0.293,-0.015l-0.293,-0.015l-0.294,-0.013l-0.295,-0.014l-0.295,-0.011l-0.297,-0.01l-0.297,-0.009l-0.299,-0.008l-0.3,-0.007l-0.3,-0.006l-0.302,-0.005l-0.302,-0.003l-0.303,-0.002l-0.305,-0.001l-0.305,0l-0.306,0l-0.306,0.002l-0.309,0.004l-0.309,0.005l-0.31,0.005l-0.311,0.007l-0.311,0.007l-0.313,0.01l-0.313,0.011l-0.315,0.011l-0.315,0.014l-0.317,0.013l-0.318,0.016l-0.318,0.016l-0.319,0.018l-0.321,0.019l-0.321,0.02l-0.322,0.022l-0.322,0.022l-0.325,0.025l-0.325,0.024l-0.326,0.028l-0.327,0.028l-0.327,0.028l-0.33,0.031l-0.33,0.032l-0.33,0.032l-0.331,0.034l-0.334,0.036l-0.333,0.037l-0.334,0.038l-0.336,0.039l-0.336,0.041l-0.337,0.043l-0.338,0.043l-0.34,0.044l-0.34,0.047l-0.341,0.047l-0.343,0.049l-0.344,0.05l-0.343,0.052l-0.345,0.053l-0.346,0.054l-0.347,0.055l-0.348,0.058l-0.349,0.058l-0.35,0.06l-0.35,0.061l-0.352,0.062l-0.353,0.064l-0.354,0.067l-0.354,0.066l-0.356,0.068l-0.357,0.07l-0.357,0.071l-0.358,0.073l-0.36,0.074l-0.361,0.075l-0.361,0.077l-0.362,0.079l-0.363,0.079l-0.364,0.082l-0.366,0.082l-0.366,0.084l-0.368,0.086l-0.368,0.087l-0.369,0.089l-0.37,0.09l-0.371,0.092l-0.372,0.092l-0.373,0.095l-0.373,0.097l-0.376,0.097l-0.376,0.1l-0.376,0.101l-0.378,0.102l-0.379,0.103l-0.382,0.107l-1.041,-3.007l0.37,-0.155l0.373,-0.154l0.371,-0.151l0.372,-0.151l0.37,-0.149l0.37,-0.147l0.371,-0.146l0.369,-0.144l0.367,-0.143l0.368,-0.14l0.368,-0.14l0.366,-0.137l0.366,-0.136l0.365,-0.135l0.365,-0.133l0.364,-0.132l0.365,-0.129l0.362,-0.129l0.362,-0.127l0.363,-0.125l0.36,-0.123l0.362,-0.123l0.36,-0.121l0.359,-0.119l0.36,-0.117l0.357,-0.117l0.358,-0.114l0.357,-0.113l0.357,-0.112l0.357,-0.11l0.355,-0.108l0.355,-0.107l0.355,-0.106l0.353,-0.104l0.353,-0.102l0.353,-0.102l0.351,-0.1l0.352,-0.097l0.351,-0.097l0.35,-0.095l0.35,-0.095l0.349,-0.092l0.348,-0.091l0.348,-0.089l0.348,-0.088l0.347,-0.086l0.346,-0.085l0.345,-0.084l0.346,-0.082l0.344,-0.08l0.344,-0.08l0.344,-0.078l0.342,-0.076l0.342,-0.075l0.342,-0.074l0.34,-0.072l0.341,-0.07l0.34,-0.071l0.339,-0.067l0.338,-0.067l0.339,-0.065l0.338,-0.064l0.337,-0.063l0.336,-0.06l0.336,-0.06l0.334,-0.058l0.335,-0.056l0.334,-0.057l0.334,-0.054l0.333,-0.052l0.332,-0.051l0.331,-0.051l0.332,-0.048l0.33,-0.048l0.329,-0.045l0.33,-0.046l0.328,-0.043l0.329,-0.042l0.327,-0.04l0.327,-0.04l0.327,-0.038l0.325,-0.037l0.326,-0.034l0.325,-0.035l0.323,-0.033l0.324,-0.031l0.323,-0.03l0.321,-0.029l0.322,-0.028l0.321,-0.026l0.32,-0.024l0.321,-0.024l0.319,-0.023l0.318,-0.021l0.319,-0.02l0.317,-0.018l0.316,-0.017l0.318,-0.016l0.315,-0.015l0.314,-0.014l0.315,-0.012l0.314,-0.011l0.314,-0.01l0.312,-0.007l0.312,-0.008l0.312,-0.006l0.311,-0.005l0.31,-0.003l0.31,-0.003l0.308,-0.001l0.309,0Z" style="fill:#fff;stroke:#fff;stroke-width:1px;"/><path id="Curve8" serif:id="Curve" d="M518.638,337.187l0.193,-0.285l0.657,0.709l1.516,0.755l-0.343,0.51l30.169,32.516l-41.893,-15.116l-0.369,0.548l-1.261,-1.135l-0.706,-0.637l-59.438,-53.512l71.475,35.647Z" style="fill:#fff;stroke:#fff;stroke-width:1px;"/><circle id="Ellipse3" serif:id="Ellipse" cx="512.334" cy="345.891" r="21.774" style="fill:#fff;stroke:#fff;stroke-width:1px;"/></g><g id="Group5" serif:id="Group"><circle id="Ellipse4" serif:id="Ellipse" cx="652.392" cy="324.116" r="21.539" style="fill:#e95c00;"/><circle id="Ellipse5" serif:id="Ellipse" cx="711.2" cy="324.352" r="12.527" style="fill:#e95c00;"/><circle id="Ellipse6" serif:id="Ellipse" cx="371.608" cy="324.116" r="21.539" style="fill:#e95c00;"/><circle id="Ellipse7" serif:id="Ellipse" cx="312.8" cy="324.352" r="12.527" style="fill:#e95c00;"/></g></g></g></svg>