<?xml version="1.0" encoding="UTF-8" standalone="no"?><!DOCTYPE svg PUBLIC "-//W3C//DTD SVG 1.1//EN" "http://www.w3.org/Graphics/SVG/1.1/DTD/svg11.dtd"><svg width="100%" height="100%" viewBox="0 0 1024 1024" version="1.1" xmlns="http://www.w3.org/2000/svg" xmlns:xlink="http://www.w3.org/1999/xlink" xml:space="preserve" xmlns:serif="http://www.serif.com/" style="fill-rule:evenodd;clip-rule:evenodd;stroke-linejoin:round;stroke-miterlimit:2;"><g id="Icon--Flat-" serif:id="Icon (Flat)"><circle cx="512" cy="512" r="512" style="fill:#fff;"/><circle cx="512" cy="512" r="462.799" style="fill:#e95c00;"/><g><g id="Group"><path id="Curve" d="M814.331,760.302l-604.662,0l44.473,-123.211c9.264,-26.27 36.024,-28.953 36.024,-28.953l221.834,-4.851l221.834,4.851c0,0 26.76,2.683 36.024,28.953l44.473,123.211Z" style="fill:#fff;"/><path id="Curve1" serif:id="Curve" d="M253.322,827.917c-26.12,0 -47.326,-21.85 -47.326,-48.763c0,-26.912 21.206,-48.762 47.326,-48.763l517.356,0c26.12,0.002 47.326,21.851 47.326,48.763c0,26.913 -21.207,48.763 -47.326,48.763l-517.356,0Z" style="fill:#fff;"/><g id="Group1" serif:id="Group"><g id="Group2" serif:id="Group"><path id="Curve2" serif:id="Curve" d="M549.071,663.544c0.785,-4.114 -1.919,-7.455 -6.034,-7.455l-152.261,0c-4.114,0 -8.092,3.341 -8.877,7.455l-6.172,32.377c-0.785,4.115 1.919,7.455 6.033,7.455l152.261,0c4.115,0 8.093,-3.34 8.877,-7.455l6.173,-32.377Z" style="fill:#e95c00;"/><path id="Rectangle" d="M518.567,662.635l-131.492,0l-0.769,4.036l131.491,0l0.77,-4.036Z" style="fill:#fff;"/><path id="Rectangle1" serif:id="Rectangle" d="M516.753,672.149l-131.492,0l-0.769,4.036l131.491,0l0.77,-4.036Z" style="fill:#fff;"/><path id="Rectangle2" serif:id="Rectangle" d="M514.939,681.663l-131.491,0l-0.77,4.036l131.491,0l0.77,-4.036Z" style="fill:#fff;"/><path id="Rectangle3" serif:id="Rectangle" d="M513.125,691.177l-131.491,0l-0.77,4.036l131.491,0l0.77,-4.036Z" style="fill:#fff;"/></g><g id="Group3" serif:id="Group"><path id="Curve3" serif:id="Curve" d="M500.947,663.544c-0.785,-4.114 1.919,-7.455 6.034,-7.455l126.586,0c4.115,0 8.093,3.341 8.877,7.455l6.173,32.377c0.785,4.115 -1.919,7.455 -6.034,7.455l-126.586,0c-4.115,0 -8.093,-3.34 -8.877,-7.455l-6.173,-32.377Z" style="fill:#e95c00;"/><path id="Rectangle4" serif:id="Rectangle" d="M496.55,662.635l140.718,0l0.77,4.036l-140.718,0l-0.77,-4.036Z" style="fill:#fff;"/><path id="Rectangle5" serif:id="Rectangle" d="M498.364,672.149l140.718,0l0.769,4.036l-140.717,0l-0.77,-4.036Z" style="fill:#fff;"/><path id="Rectangle6" serif:id="Rectangle" d="M500.947,681.663l139.949,0l0.769,4.036l-139.949,0l-0.769,-4.036Z" style="fill:#fff;"/><path id="Rectangle7" serif:id="Rectangle" d="M500.177,691.177l142.532,0l0.77,4.036l-142.533,0l-0.769,-4.036Z" style="fill:#fff;"/></g></g></g><path id="Curve4" serif:id="Curve" d="M640.987,640.439l-257.63,0c0,0 -6.447,-0.524 -8.297,-2.018c-1.85,-1.495 -2.806,-6.951 -2.806,-6.951l-36.132,-212.353l352.1,0l-36.132,212.353c0,0 -0.956,5.456 -2.807,6.951c-1.844,1.489 -8.252,2.014 -8.296,2.018Z" style="fill:#fff;"/><path id="Curve5" serif:id="Curve" d="M807.631,309.28l-590.549,0c0,-165.305 240.493,-172.084 295.275,-172.145l1.318,0.003c57.206,0.174 293.956,8.129 293.956,172.142Z" style="fill:#fff;"/><path id="Curve6" serif:id="Curve" d="M511.067,445.668c-219.437,-0.238 -293.985,-61.26 -293.985,-136.388c0,-75.274 93.374,-132.754 293.998,-132.754l2.346,0.003c199.026,0.446 294.205,57.771 294.205,132.751c0,75.275 -74.839,136.389 -295.274,136.389l-1.29,-0.001Z" style="fill:#fff;"/><g id="Group4" serif:id="Group"><circle id="Ellipse" cx="512.355" cy="311.097" r="108.02" style="fill:#e95c00;"/><circle id="Ellipse1" serif:id="Ellipse" cx="512.888" cy="311.097" r="95.659" style="fill:#fff;"/><circle id="Ellipse2" serif:id="Ellipse" cx="512.355" cy="311.097" r="90.713" style="fill:#e95c00;"/><path id="Curve7" serif:id="Curve" d="M514.403,243.01l0.657,0.005l0.328,0.004l0.327,0.006l0.327,0.006l0.326,0.008l0.325,0.009l0.325,0.011l0.647,0.024l0.322,0.014l0.322,0.016l0.322,0.017l0.32,0.017l0.321,0.02l0.318,0.021l0.32,0.021l0.317,0.023l0.318,0.024l0.316,0.025l0.317,0.026l0.314,0.029l0.316,0.029l0.313,0.031l0.314,0.031l0.623,0.066l0.312,0.035l0.31,0.036l0.311,0.038l0.309,0.038l0.309,0.041l0.308,0.041l0.306,0.042l0.613,0.087l0.305,0.046l0.608,0.094l0.304,0.049l0.302,0.05l0.301,0.051l0.302,0.053l0.299,0.054l0.3,0.055l0.299,0.055l0.298,0.057l0.298,0.058l0.297,0.059l0.296,0.06l0.296,0.062l0.294,0.062l0.587,0.129l0.293,0.066l0.292,0.065l0.582,0.137l0.289,0.07l0.289,0.071l0.288,0.072l0.288,0.074l0.287,0.074l0.287,0.075l0.285,0.076l0.568,0.155l0.284,0.08l0.283,0.081l0.282,0.08l0.281,0.083l0.28,0.082l0.279,0.085l0.28,0.085l0.555,0.174l0.278,0.088l0.275,0.089l0.276,0.09l0.275,0.092l0.273,0.092l0.273,0.092l0.544,0.189l0.271,0.096l0.539,0.195l0.269,0.099l0.268,0.1l0.267,0.1l0.267,0.101l0.265,0.102l0.265,0.103l0.264,0.105l0.263,0.104l0.263,0.107l0.262,0.106l0.262,0.108l0.26,0.108l0.259,0.11l0.259,0.11l0.516,0.223l0.513,0.226l0.255,0.115l0.508,0.231l0.252,0.117l0.253,0.119l0.251,0.118l0.5,0.239l0.248,0.121l0.249,0.123l0.247,0.122l0.247,0.124l0.246,0.123l0.245,0.125l0.245,0.126l0.243,0.127l0.484,0.255l0.242,0.129l0.241,0.13l0.478,0.26l0.238,0.132l0.474,0.266l0.471,0.268l0.234,0.135l0.465,0.274l0.232,0.137l0.231,0.138l0.231,0.138l0.23,0.139l0.229,0.141l0.227,0.141l0.226,0.141l0.228,0.142l0.45,0.286l0.223,0.144l0.224,0.144l0.222,0.146l0.442,0.292l0.439,0.295l0.437,0.297l0.216,0.15l0.217,0.15l0.643,0.454l0.212,0.152l0.213,0.154l0.21,0.153l0.21,0.155l0.211,0.154l0.208,0.155l0.208,0.157l0.207,0.155l0.207,0.158l0.205,0.156l0.205,0.158l0.204,0.159l0.405,0.318l0.201,0.159l0.202,0.161l0.199,0.162l0.2,0.16l0.198,0.163l0.197,0.162l0.197,0.163l0.196,0.163l0.195,0.163l0.195,0.165l0.193,0.165l0.193,0.165l0.192,0.166l0.191,0.165l0.189,0.167l0.191,0.167l0.376,0.334l0.187,0.169l0.185,0.168l0.371,0.339l0.183,0.17l0.184,0.17l0.363,0.342l0.361,0.342l0.178,0.172l0.178,0.172l0.178,0.174l0.176,0.172l0.176,0.174l0.175,0.173l0.174,0.175l0.173,0.174l0.173,0.175l0.17,0.175l0.171,0.176l0.17,0.175l0.17,0.176l0.168,0.176l0.167,0.178l0.167,0.176l0.332,0.355l0.163,0.178l0.164,0.179l0.162,0.177l0.323,0.358l0.161,0.18l0.159,0.179l0.474,0.541l0.31,0.36l0.155,0.181l0.154,0.182l0.153,0.18l0.151,0.183l0.302,0.363l0.15,0.183l0.149,0.181l0.294,0.366l0.146,0.183l0.146,0.184l0.145,0.183l0.143,0.184l0.144,0.183l0.146,0.189l0.279,0.363l0.278,0.37l0.275,0.369l0.273,0.37l0.269,0.371l0.266,0.371l0.262,0.372l0.26,0.371l0.255,0.372l0.253,0.373l0.25,0.374l0.246,0.372l0.243,0.375l0.239,0.373l0.237,0.374l0.233,0.375l0.23,0.375l0.226,0.375l0.224,0.373l0.219,0.375l0.217,0.376l0.215,0.375l0.209,0.375l0.208,0.375l0.204,0.374l0.2,0.375l0.197,0.375l0.193,0.374l0.191,0.374l0.188,0.375l0.184,0.374l0.18,0.373l0.178,0.375l0.175,0.372l0.169,0.374l0.169,0.373l0.164,0.373l0.161,0.372l0.157,0.372l0.154,0.372l0.152,0.371l0.147,0.371l0.145,0.371l0.14,0.369l0.138,0.37l0.134,0.37l0.132,0.369l0.126,0.368l0.125,0.369l0.121,0.367l0.117,0.368l0.113,0.367l0.111,0.366l0.108,0.365l0.102,0.366l0.1,0.365l0.098,0.365l0.092,0.365l0.089,0.363l0.086,0.365l0.082,0.363l0.078,0.363l0.074,0.351l0.037,0.192l0.035,0.181l0.034,0.182l0.033,0.18l0.033,0.182l0.032,0.18l0.03,0.181l0.029,0.18l0.029,0.182l0.027,0.18l0.027,0.18l0.025,0.182l0.025,0.18l0.023,0.18l0.023,0.18l0.021,0.181l0.019,0.181l0.02,0.18l0.019,0.18l0.034,0.361l0.014,0.181l0.015,0.18l0.013,0.181l0.012,0.18l0.01,0.181l0.011,0.181l0.008,0.151l-19.328,0.11l0.007,-0.093l0.007,-0.065l0.006,-0.067l0.007,-0.068l0.005,-0.068l0.005,-0.071l0.005,-0.073l0.004,-0.073l0.004,-0.074l0.004,-0.076l0.003,-0.077l0.003,-0.079l0.002,-0.078l0.002,-0.081l0.001,-0.083l0.001,-0.082l0,-0.085l0,-0.084l-0.001,-0.087l-0.001,-0.088l-0.002,-0.088l-0.002,-0.089l-0.003,-0.091l-0.004,-0.092l-0.004,-0.092l-0.004,-0.095l-0.005,-0.095l-0.004,-0.085l-0.015,-0.205l-0.015,-0.199l-0.017,-0.202l-0.021,-0.207l-0.023,-0.21l-0.024,-0.213l-0.027,-0.217l-0.03,-0.22l-0.032,-0.224l-0.035,-0.227l-0.037,-0.229l-0.041,-0.234l-0.042,-0.235l-0.045,-0.24l-0.049,-0.242l-0.05,-0.243l-0.052,-0.247l-0.057,-0.25l-0.058,-0.253l-0.06,-0.255l-0.064,-0.258l-0.066,-0.259l-0.07,-0.263l-0.071,-0.264l-0.075,-0.266l-0.078,-0.27l-0.08,-0.269l-0.083,-0.274l-0.085,-0.275l-0.088,-0.276l-0.091,-0.279l-0.093,-0.28l-0.098,-0.281l-0.098,-0.284l-0.103,-0.286l-0.105,-0.286l-0.108,-0.289l-0.11,-0.29l-0.114,-0.291l-0.117,-0.293l-0.118,-0.295l-0.122,-0.294l-0.125,-0.298l-0.127,-0.297l-0.131,-0.3l-0.133,-0.3l-0.135,-0.301l-0.14,-0.301l-0.142,-0.304l-0.144,-0.304l-0.148,-0.305l-0.15,-0.305l-0.152,-0.306l-0.157,-0.308l-0.159,-0.308l-0.162,-0.308l-0.164,-0.309l-0.167,-0.31l-0.171,-0.31l-0.172,-0.311l-0.177,-0.31l-0.179,-0.312l-0.186,-0.317l-0.088,-0.151l-0.092,-0.157l-0.094,-0.156l-0.095,-0.155l-0.094,-0.157l-0.096,-0.156l-0.096,-0.157l-0.098,-0.156l-0.097,-0.157l-0.099,-0.156l-0.1,-0.157l-0.099,-0.156l-0.1,-0.157l-0.103,-0.156l-0.101,-0.158l-0.104,-0.157l-0.103,-0.156l-0.105,-0.157l-0.105,-0.156l-0.105,-0.157l-0.107,-0.156l-0.108,-0.157l-0.108,-0.156l-0.109,-0.157l-0.109,-0.156l-0.11,-0.157l-0.111,-0.156l-0.112,-0.157l-0.112,-0.156l-0.113,-0.156l-0.114,-0.156l-0.115,-0.157l-0.115,-0.155l-0.116,-0.156l-0.117,-0.156l-0.117,-0.156l-0.118,-0.155l-0.12,-0.155l-0.12,-0.157l-0.12,-0.155l-0.122,-0.155l-0.121,-0.156l-0.123,-0.155l-0.124,-0.154l-0.124,-0.155l-0.125,-0.154l-0.126,-0.155l-0.126,-0.154l-0.126,-0.154l-0.129,-0.155l-0.129,-0.152l-0.129,-0.154l-0.13,-0.154l-0.131,-0.154l-0.132,-0.153l-0.132,-0.152l-0.133,-0.154l-0.134,-0.153l-0.135,-0.151l-0.136,-0.152l-0.135,-0.153l-0.137,-0.151l-0.138,-0.152l-0.138,-0.152l-0.14,-0.15l-0.139,-0.151l-0.141,-0.152l-0.142,-0.149l-0.142,-0.15l-0.142,-0.15l-0.143,-0.15l-0.145,-0.15l-0.146,-0.149l-0.146,-0.15l-0.146,-0.148l-0.147,-0.149l-0.149,-0.147l-0.149,-0.149l-0.149,-0.147l-0.15,-0.148l-0.152,-0.147l-0.152,-0.146l-0.153,-0.147l-0.154,-0.146l-0.154,-0.146l-0.155,-0.145l-0.156,-0.146l-0.157,-0.144l-0.156,-0.145l-0.158,-0.145l-0.159,-0.143l-0.161,-0.144l-0.16,-0.143l-0.161,-0.143l-0.161,-0.142l-0.163,-0.142l-0.165,-0.142l-0.163,-0.141l-0.166,-0.142l-0.165,-0.141l-0.167,-0.139l-0.167,-0.141l-0.169,-0.139l-0.168,-0.14l-0.171,-0.138l-0.17,-0.139l-0.171,-0.138l-0.172,-0.137l-0.174,-0.137l-0.173,-0.137l-0.175,-0.137l-0.175,-0.136l-0.176,-0.136l-0.177,-0.134l-0.177,-0.135l-0.179,-0.135l-0.179,-0.132l-0.18,-0.135l-0.18,-0.132l-0.182,-0.132l-0.183,-0.133l-0.182,-0.131l-0.185,-0.131l-0.185,-0.131l-0.185,-0.13l-0.187,-0.129l-0.187,-0.129l-0.188,-0.129l-0.189,-0.128l-0.19,-0.128l-0.191,-0.127l-0.19,-0.126l-0.192,-0.126l-0.194,-0.126l-0.193,-0.125l-0.195,-0.125l-0.194,-0.124l-0.198,-0.124l-0.195,-0.122l-0.199,-0.122l-0.199,-0.123l-0.198,-0.121l-0.202,-0.121l-0.199,-0.121l-0.203,-0.118l-0.203,-0.12l-0.203,-0.118l-0.204,-0.118l-0.205,-0.117l-0.207,-0.117l-0.206,-0.116l-0.208,-0.116l-0.209,-0.114l-0.209,-0.115l-0.211,-0.114l-0.21,-0.113l-0.212,-0.113l-0.213,-0.112l-0.215,-0.111l-0.214,-0.112l-0.214,-0.109l-0.217,-0.109l-0.217,-0.109l-0.217,-0.108l-0.22,-0.108l-0.22,-0.106l-0.219,-0.107l-0.221,-0.105l-0.222,-0.105l-0.224,-0.104l-0.224,-0.104l-0.225,-0.103l-0.226,-0.102l-0.226,-0.101l-0.228,-0.1l-0.227,-0.1l-0.229,-0.1l-0.23,-0.099l-0.232,-0.097l-0.231,-0.098l-0.233,-0.097l-0.233,-0.095l-0.234,-0.096l-0.235,-0.093l-0.237,-0.093l-0.237,-0.094l-0.238,-0.092l-0.238,-0.091l-0.239,-0.09l-0.241,-0.09l-0.242,-0.089l-0.242,-0.088l-0.243,-0.088l-0.245,-0.086l-0.244,-0.087l-0.246,-0.084l-0.248,-0.084l-0.247,-0.084l-0.248,-0.083l-0.25,-0.082l-0.25,-0.081l-0.251,-0.079l-0.253,-0.08l-0.252,-0.079l-0.256,-0.078l-0.253,-0.076l-0.257,-0.076l-0.256,-0.075l-0.258,-0.074l-0.259,-0.074l-0.259,-0.072l-0.261,-0.072l-0.261,-0.071l-0.264,-0.07l-0.263,-0.069l-0.264,-0.068l-0.264,-0.067l-0.267,-0.067l-0.267,-0.066l-0.267,-0.064l-0.27,-0.063l-0.27,-0.064l-0.27,-0.061l-0.271,-0.061l-0.274,-0.059l-0.274,-0.059l-0.274,-0.058l-0.275,-0.058l-0.276,-0.055l-0.278,-0.055l-0.279,-0.054l-0.279,-0.054l-0.28,-0.052l-0.281,-0.051l-0.282,-0.05l-0.284,-0.05l-0.284,-0.048l-0.284,-0.047l-0.287,-0.047l-0.286,-0.045l-0.288,-0.043l-0.288,-0.043l-0.291,-0.042l-0.291,-0.041l-0.292,-0.041l-0.292,-0.039l-0.294,-0.037l-0.295,-0.037l-0.295,-0.037l-0.297,-0.034l-0.297,-0.034l-0.299,-0.032l-0.299,-0.031l-0.3,-0.031l-0.303,-0.03l-0.302,-0.028l-0.303,-0.027l-0.305,-0.025l-0.305,-0.025l-0.307,-0.024l-0.307,-0.024l-0.308,-0.021l-0.31,-0.019l-0.311,-0.02l-0.31,-0.018l-0.313,-0.016l-0.313,-0.016l-0.315,-0.015l-0.315,-0.014l-0.316,-0.012l-0.317,-0.01l-0.318,-0.011l-0.32,-0.008l-0.321,-0.008l-0.321,-0.006l-0.322,-0.005l-0.323,-0.003l-0.324,-0.003l-0.326,-0.001l-0.326,0l-0.328,0l-0.327,0.003l-0.33,0.004l-0.331,0.005l-0.331,0.005l-0.333,0.008l-0.332,0.008l-0.335,0.01l-0.335,0.012l-0.337,0.012l-0.336,0.014l-0.34,0.015l-0.339,0.017l-0.341,0.017l-0.34,0.019l-0.344,0.021l-0.343,0.021l-0.344,0.023l-0.345,0.024l-0.347,0.026l-0.347,0.027l-0.349,0.029l-0.35,0.03l-0.35,0.03l-0.352,0.033l-0.353,0.034l-0.353,0.034l-0.354,0.037l-0.357,0.038l-0.356,0.04l-0.358,0.041l-0.359,0.042l-0.359,0.043l-0.36,0.046l-0.362,0.046l-0.363,0.047l-0.364,0.05l-0.365,0.05l-0.367,0.053l-0.366,0.054l-0.367,0.055l-0.37,0.057l-0.37,0.058l-0.37,0.059l-0.373,0.062l-0.373,0.061l-0.374,0.065l-0.375,0.064l-0.376,0.067l-0.377,0.069l-0.379,0.071l-0.379,0.071l-0.38,0.072l-0.381,0.075l-0.383,0.076l-0.383,0.078l-0.384,0.079l-0.386,0.08l-0.386,0.083l-0.388,0.084l-0.388,0.084l-0.389,0.088l-0.391,0.089l-0.392,0.089l-0.393,0.092l-0.393,0.093l-0.395,0.095l-0.396,0.096l-0.397,0.099l-0.397,0.098l-0.399,0.102l-0.399,0.104l-0.401,0.104l-0.403,0.106l-0.402,0.108l-0.404,0.109l-0.405,0.111l-0.409,0.114l-1.113,-3.216l0.396,-0.165l0.398,-0.165l0.398,-0.162l0.397,-0.161l0.396,-0.16l0.396,-0.156l0.395,-0.157l0.395,-0.153l0.393,-0.153l0.394,-0.15l0.393,-0.15l0.392,-0.146l0.39,-0.146l0.391,-0.145l0.391,-0.142l0.389,-0.14l0.389,-0.138l0.388,-0.139l0.387,-0.135l0.388,-0.134l0.385,-0.132l0.387,-0.131l0.385,-0.129l0.384,-0.128l0.384,-0.125l0.383,-0.125l0.383,-0.122l0.381,-0.121l0.382,-0.12l0.381,-0.117l0.38,-0.115l0.38,-0.115l0.379,-0.113l0.377,-0.112l0.378,-0.109l0.377,-0.109l0.377,-0.107l0.376,-0.103l0.375,-0.104l0.374,-0.102l0.374,-0.101l0.373,-0.099l0.373,-0.097l0.372,-0.095l0.372,-0.094l0.371,-0.092l0.37,-0.091l0.369,-0.089l0.37,-0.089l0.368,-0.085l0.367,-0.086l0.368,-0.082l0.366,-0.082l0.365,-0.08l0.366,-0.079l0.364,-0.078l0.365,-0.075l0.363,-0.075l0.363,-0.072l0.361,-0.071l0.362,-0.07l0.362,-0.068l0.36,-0.067l0.359,-0.065l0.359,-0.064l0.358,-0.062l0.358,-0.06l0.357,-0.061l0.357,-0.058l0.356,-0.055l0.355,-0.055l0.354,-0.054l0.355,-0.051l0.353,-0.052l0.352,-0.048l0.353,-0.049l0.351,-0.046l0.351,-0.045l0.35,-0.043l0.35,-0.042l0.35,-0.041l0.347,-0.04l0.348,-0.036l0.348,-0.037l0.346,-0.036l0.345,-0.033l0.346,-0.032l0.344,-0.031l0.344,-0.03l0.343,-0.028l0.342,-0.026l0.344,-0.025l0.34,-0.025l0.341,-0.022l0.341,-0.021l0.339,-0.02l0.338,-0.018l0.339,-0.018l0.337,-0.015l0.337,-0.015l0.336,-0.013l0.336,-0.012l0.335,-0.01l0.334,-0.008l0.334,-0.008l0.333,-0.007l0.333,-0.005l0.331,-0.004l0.332,-0.002l0.33,-0.002l0.33,0Z" style="fill:#fff;stroke:#fff;stroke-width:1px;"/><path id="Curve8" serif:id="Curve" d="M519.098,325.074l0.206,-0.305l0.702,0.759l1.622,0.807l-0.367,0.545l32.26,34.769l-44.797,-16.163l-0.394,0.585l-1.349,-1.213l-0.755,-0.681l-63.555,-57.22l76.427,38.117Z" style="fill:#fff;stroke:#fff;stroke-width:1px;"/><circle id="Ellipse3" serif:id="Ellipse" cx="512.357" cy="334.381" r="23.283" style="fill:#fff;stroke:#fff;stroke-width:1px;"/></g><g id="Group5" serif:id="Group"><circle id="Ellipse4" serif:id="Ellipse" cx="662.12" cy="311.097" r="23.032" style="fill:#e95c00;"/><circle id="Ellipse5" serif:id="Ellipse" cx="725.003" cy="311.35" r="13.396" style="fill:#e95c00;"/><circle id="Ellipse6" serif:id="Ellipse" cx="361.88" cy="311.097" r="23.032" style="fill:#e95c00;"/><circle id="Ellipse7" serif:id="Ellipse" cx="298.997" cy="311.35" r="13.396" style="fill:#e95c00;"/></g></g></g></svg>