<?xml version="1.0" encoding="UTF-8" standalone="no"?><!DOCTYPE svg PUBLIC "-//W3C//DTD SVG 1.1//EN" "http://www.w3.org/Graphics/SVG/1.1/DTD/svg11.dtd"><svg width="100%" height="100%" viewBox="0 0 1024 1024" version="1.1" xmlns="http://www.w3.org/2000/svg" xmlns:xlink="http://www.w3.org/1999/xlink" xml:space="preserve" xmlns:serif="http://www.serif.com/" style="fill-rule:evenodd;clip-rule:evenodd;stroke-linejoin:round;stroke-miterlimit:2;"><rect id="Plugin-Icon" serif:id="Plugin Icon" x="0" y="0" width="1024" height="1024" style="fill:none;"/><g id="Plugin-Icon1" serif:id="Plugin Icon"><g id="Icon--Flat-" serif:id="Icon (Flat)"><circle cx="512" cy="512" r="478.822" style="fill:#fff;"/><circle cx="512" cy="512" r="432.809" style="fill:#e95c00;"/><g><g id="Group"><path id="Curve" d="M766.222,718.01l-508.444,0l37.396,-103.605c7.79,-22.09 30.292,-24.346 30.292,-24.346l186.534,-4.079l186.533,4.079c0,0 22.503,2.256 30.292,24.346l37.397,103.605Z" style="fill:#fff;"/><path id="Curve1" serif:id="Curve" d="M294.485,774.865c-21.963,0 -39.794,-18.373 -39.794,-41.003c0,-22.63 17.831,-41.003 39.794,-41.004l435.03,0c21.963,0.002 39.794,18.374 39.794,41.004c0,22.63 -17.831,41.003 -39.794,41.003l-435.03,0Z" style="fill:#fff;"/><g id="Group1" serif:id="Group"><g id="Group2" serif:id="Group"><path id="Curve2" serif:id="Curve" d="M543.172,636.649c0.66,-3.459 -1.614,-6.269 -5.074,-6.269l-128.032,0c-3.459,0 -6.804,2.81 -7.464,6.269l-5.19,27.224c-0.66,3.461 1.614,6.269 5.073,6.269l128.032,0c3.46,0 6.805,-2.808 7.464,-6.269l5.191,-27.224Z" style="fill:#e95c00;"/><path id="Rectangle" d="M517.522,635.884l-110.567,0l-0.647,3.394l110.567,0l0.647,-3.394Z" style="fill:#fff;"/><path id="Rectangle1" serif:id="Rectangle" d="M515.996,643.884l-110.567,0l-0.647,3.394l110.567,0l0.647,-3.394Z" style="fill:#fff;"/><path id="Rectangle2" serif:id="Rectangle" d="M514.471,651.884l-110.567,0l-0.647,3.394l110.567,0l0.647,-3.394Z" style="fill:#fff;"/><path id="Rectangle3" serif:id="Rectangle" d="M512.946,659.884l-110.567,0l-0.647,3.394l110.567,0l0.647,-3.394Z" style="fill:#fff;"/></g><g id="Group3" serif:id="Group"><path id="Curve3" serif:id="Curve" d="M502.706,636.649c-0.66,-3.459 1.614,-6.269 5.074,-6.269l106.442,0c3.46,0 6.805,2.81 7.464,6.269l5.191,27.224c0.66,3.461 -1.614,6.269 -5.073,6.269l-106.443,0c-3.46,0 -6.805,-2.808 -7.465,-6.269l-5.19,-27.224Z" style="fill:#e95c00;"/><path id="Rectangle4" serif:id="Rectangle" d="M499.009,635.884l118.325,0l0.647,3.394l-118.325,0l-0.647,-3.394Z" style="fill:#fff;"/><path id="Rectangle5" serif:id="Rectangle" d="M500.534,643.884l118.326,0l0.647,3.394l-118.326,0l-0.647,-3.394Z" style="fill:#fff;"/><path id="Rectangle6" serif:id="Rectangle" d="M502.706,651.884l117.679,0l0.647,3.394l-117.679,0l-0.647,-3.394Z" style="fill:#fff;"/><path id="Rectangle7" serif:id="Rectangle" d="M502.058,659.884l119.852,0l0.647,3.394l-119.852,0l-0.647,-3.394Z" style="fill:#fff;"/></g></g></g><path id="Curve4" serif:id="Curve" d="M620.461,617.22l-216.633,0c0,0 -5.421,-0.44 -6.977,-1.697c-1.556,-1.257 -2.359,-5.844 -2.359,-5.844l-30.383,-178.562l296.071,0l-30.383,178.562c0,0 -0.803,4.587 -2.359,5.844c-1.551,1.253 -6.94,1.694 -6.977,1.697Z" style="fill:#fff;"/><path id="Curve5" serif:id="Curve" d="M760.588,338.759l-496.576,0c0,-139 202.224,-144.701 248.288,-144.752l1.108,0.003c48.103,0.146 247.18,6.835 247.18,144.749Z" style="fill:#fff;"/><path id="Curve6" serif:id="Curve" d="M511.215,453.443c-184.518,-0.2 -247.203,-51.512 -247.203,-114.684c0,-63.296 78.515,-111.63 247.215,-111.63l1.972,0.003c167.355,0.375 247.389,48.578 247.389,111.627c0,63.296 -62.931,114.685 -248.288,114.685l-1.085,-0.001Z" style="fill:#fff;"/><g id="Group4" serif:id="Group"><circle id="Ellipse" cx="512.299" cy="340.286" r="90.831" style="fill:#e95c00;"/><circle id="Ellipse1" serif:id="Ellipse" cx="512.746" cy="340.286" r="80.437" style="fill:#fff;"/><circle id="Ellipse2" serif:id="Ellipse" cx="512.299" cy="340.286" r="76.278" style="fill:#e95c00;"/><path id="Curve7" serif:id="Curve" d="M514.021,283.034l0.552,0.005l0.276,0.003l0.275,0.004l0.275,0.006l0.274,0.007l0.273,0.007l0.273,0.009l0.544,0.02l0.271,0.012l0.271,0.013l0.271,0.015l0.269,0.014l0.27,0.017l0.267,0.018l0.269,0.017l0.267,0.02l0.267,0.02l0.266,0.021l0.266,0.022l0.264,0.024l0.266,0.025l0.263,0.025l0.264,0.027l0.525,0.055l0.262,0.03l0.261,0.03l0.261,0.032l0.26,0.032l0.26,0.034l0.258,0.035l0.258,0.035l0.515,0.073l0.257,0.039l0.511,0.079l0.255,0.041l0.255,0.042l0.253,0.043l0.253,0.045l0.252,0.045l0.253,0.046l0.251,0.047l0.251,0.047l0.25,0.049l0.25,0.05l0.248,0.051l0.249,0.052l0.248,0.052l0.493,0.108l0.247,0.055l0.245,0.056l0.489,0.115l0.243,0.058l0.244,0.06l0.242,0.061l0.242,0.062l0.241,0.062l0.241,0.063l0.24,0.064l0.478,0.13l0.239,0.068l0.238,0.067l0.236,0.068l0.237,0.069l0.236,0.07l0.234,0.071l0.236,0.072l0.466,0.146l0.234,0.074l0.231,0.075l0.232,0.075l0.231,0.078l0.23,0.077l0.229,0.077l0.458,0.16l0.228,0.08l0.453,0.164l0.226,0.083l0.226,0.084l0.224,0.084l0.225,0.085l0.223,0.087l0.222,0.086l0.223,0.088l0.221,0.088l0.221,0.089l0.22,0.09l0.22,0.091l0.219,0.09l0.218,0.093l0.218,0.092l0.433,0.188l0.432,0.19l0.214,0.096l0.427,0.195l0.212,0.098l0.213,0.1l0.211,0.099l0.42,0.202l0.209,0.102l0.209,0.102l0.208,0.103l0.208,0.104l0.207,0.104l0.206,0.105l0.205,0.106l0.205,0.107l0.407,0.214l0.203,0.108l0.203,0.11l0.402,0.219l0.2,0.111l0.399,0.223l0.396,0.226l0.196,0.113l0.392,0.23l0.195,0.115l0.194,0.117l0.194,0.116l0.193,0.117l0.193,0.118l0.191,0.119l0.19,0.118l0.192,0.119l0.378,0.242l0.188,0.12l0.188,0.122l0.187,0.122l0.371,0.246l0.37,0.248l0.367,0.25l0.181,0.126l0.183,0.126l0.54,0.381l0.179,0.129l0.179,0.129l0.177,0.128l0.177,0.131l0.177,0.129l0.174,0.131l0.175,0.131l0.175,0.131l0.173,0.133l0.173,0.131l0.172,0.133l0.172,0.134l0.34,0.267l0.17,0.134l0.169,0.135l0.168,0.136l0.168,0.135l0.166,0.137l0.166,0.136l0.166,0.137l0.165,0.137l0.163,0.138l0.164,0.138l0.162,0.139l0.163,0.138l0.162,0.14l0.16,0.139l0.159,0.141l0.16,0.14l0.317,0.281l0.157,0.141l0.156,0.142l0.312,0.285l0.153,0.143l0.155,0.143l0.305,0.287l0.303,0.288l0.151,0.145l0.149,0.145l0.149,0.146l0.149,0.144l0.148,0.146l0.147,0.146l0.146,0.147l0.146,0.146l0.145,0.148l0.144,0.147l0.143,0.148l0.143,0.147l0.143,0.148l0.141,0.148l0.141,0.15l0.14,0.148l0.279,0.298l0.137,0.15l0.138,0.15l0.136,0.149l0.272,0.301l0.135,0.152l0.134,0.15l0.398,0.455l0.261,0.303l0.131,0.152l0.129,0.153l0.128,0.151l0.128,0.154l0.254,0.305l0.126,0.154l0.125,0.153l0.248,0.307l0.122,0.154l0.123,0.155l0.122,0.153l0.12,0.155l0.121,0.154l0.123,0.159l0.234,0.305l0.235,0.311l0.231,0.311l0.229,0.311l0.226,0.312l0.224,0.312l0.22,0.313l0.219,0.311l0.214,0.313l0.213,0.314l0.21,0.315l0.207,0.313l0.204,0.315l0.202,0.314l0.199,0.314l0.195,0.315l0.194,0.315l0.19,0.315l0.188,0.315l0.185,0.315l0.182,0.316l0.181,0.315l0.175,0.315l0.175,0.316l0.172,0.315l0.168,0.315l0.166,0.315l0.162,0.314l0.16,0.315l0.159,0.316l0.154,0.314l0.152,0.314l0.149,0.315l0.147,0.313l0.143,0.314l0.142,0.314l0.138,0.313l0.135,0.313l0.132,0.313l0.13,0.313l0.127,0.312l0.124,0.312l0.122,0.312l0.118,0.31l0.116,0.311l0.113,0.311l0.11,0.311l0.107,0.309l0.105,0.31l0.101,0.309l0.099,0.309l0.095,0.309l0.093,0.307l0.091,0.308l0.086,0.307l0.084,0.308l0.082,0.306l0.077,0.307l0.075,0.306l0.072,0.306l0.07,0.305l0.065,0.305l0.062,0.296l0.031,0.161l0.03,0.153l0.029,0.152l0.027,0.152l0.028,0.153l0.026,0.151l0.026,0.153l0.024,0.151l0.025,0.153l0.023,0.151l0.022,0.152l0.021,0.152l0.021,0.152l0.02,0.152l0.019,0.151l0.017,0.152l0.017,0.152l0.016,0.152l0.016,0.151l0.029,0.303l0.012,0.153l0.012,0.151l0.011,0.152l0.01,0.151l0.009,0.153l0.009,0.151l0.006,0.128l-16.251,0.093l0.005,-0.079l0.006,-0.054l0.005,-0.057l0.006,-0.057l0.004,-0.058l0.005,-0.059l0.004,-0.061l0.003,-0.062l0.004,-0.062l0.003,-0.064l0.002,-0.064l0.003,-0.067l0.002,-0.066l0.001,-0.067l0.001,-0.07l0.001,-0.07l0,-0.071l0,-0.07l-0.001,-0.073l-0.001,-0.074l-0.001,-0.075l-0.002,-0.075l-0.003,-0.076l-0.003,-0.077l-0.003,-0.078l-0.004,-0.079l-0.004,-0.08l-0.003,-0.072l-0.013,-0.173l-0.013,-0.167l-0.014,-0.17l-0.018,-0.173l-0.019,-0.177l-0.02,-0.18l-0.023,-0.182l-0.025,-0.185l-0.027,-0.188l-0.03,-0.191l-0.031,-0.193l-0.034,-0.196l-0.035,-0.198l-0.038,-0.202l-0.041,-0.203l-0.042,-0.205l-0.044,-0.208l-0.048,-0.21l-0.048,-0.212l-0.051,-0.215l-0.054,-0.216l-0.056,-0.218l-0.058,-0.221l-0.06,-0.223l-0.063,-0.223l-0.065,-0.227l-0.068,-0.227l-0.069,-0.23l-0.072,-0.231l-0.074,-0.232l-0.077,-0.234l-0.078,-0.236l-0.082,-0.237l-0.083,-0.239l-0.086,-0.24l-0.089,-0.241l-0.09,-0.242l-0.093,-0.244l-0.095,-0.245l-0.099,-0.246l-0.099,-0.248l-0.103,-0.248l-0.105,-0.25l-0.107,-0.25l-0.11,-0.252l-0.112,-0.252l-0.114,-0.253l-0.117,-0.253l-0.119,-0.256l-0.122,-0.255l-0.124,-0.257l-0.126,-0.257l-0.128,-0.257l-0.132,-0.259l-0.134,-0.259l-0.136,-0.259l-0.138,-0.259l-0.14,-0.261l-0.144,-0.261l-0.145,-0.261l-0.148,-0.261l-0.151,-0.263l-0.157,-0.266l-0.074,-0.127l-0.077,-0.132l-0.079,-0.132l-0.079,-0.13l-0.08,-0.132l-0.081,-0.131l-0.08,-0.132l-0.082,-0.131l-0.082,-0.132l-0.083,-0.132l-0.084,-0.131l-0.084,-0.132l-0.084,-0.131l-0.086,-0.132l-0.086,-0.133l-0.087,-0.131l-0.086,-0.132l-0.089,-0.132l-0.088,-0.131l-0.089,-0.132l-0.089,-0.131l-0.091,-0.132l-0.091,-0.132l-0.091,-0.131l-0.092,-0.132l-0.093,-0.131l-0.093,-0.132l-0.094,-0.132l-0.094,-0.131l-0.095,-0.131l-0.096,-0.131l-0.097,-0.132l-0.097,-0.13l-0.097,-0.132l-0.099,-0.131l-0.098,-0.131l-0.1,-0.131l-0.1,-0.13l-0.101,-0.132l-0.101,-0.13l-0.102,-0.131l-0.102,-0.13l-0.104,-0.131l-0.104,-0.129l-0.104,-0.131l-0.105,-0.129l-0.106,-0.131l-0.106,-0.129l-0.107,-0.129l-0.108,-0.131l-0.108,-0.128l-0.109,-0.13l-0.109,-0.129l-0.11,-0.129l-0.111,-0.129l-0.111,-0.128l-0.112,-0.129l-0.112,-0.129l-0.114,-0.127l-0.114,-0.128l-0.114,-0.128l-0.115,-0.128l-0.116,-0.127l-0.116,-0.128l-0.118,-0.126l-0.117,-0.127l-0.118,-0.127l-0.12,-0.127l-0.119,-0.126l-0.12,-0.126l-0.12,-0.126l-0.122,-0.126l-0.123,-0.125l-0.122,-0.126l-0.123,-0.125l-0.124,-0.125l-0.125,-0.124l-0.125,-0.125l-0.126,-0.124l-0.126,-0.123l-0.127,-0.124l-0.129,-0.123l-0.128,-0.124l-0.129,-0.123l-0.13,-0.122l-0.13,-0.122l-0.132,-0.123l-0.131,-0.121l-0.132,-0.122l-0.133,-0.122l-0.133,-0.12l-0.135,-0.121l-0.135,-0.12l-0.135,-0.121l-0.136,-0.119l-0.137,-0.12l-0.139,-0.119l-0.137,-0.119l-0.139,-0.119l-0.139,-0.118l-0.141,-0.118l-0.14,-0.118l-0.142,-0.117l-0.141,-0.117l-0.144,-0.117l-0.143,-0.117l-0.144,-0.116l-0.145,-0.115l-0.146,-0.115l-0.146,-0.115l-0.147,-0.115l-0.147,-0.115l-0.148,-0.114l-0.148,-0.113l-0.149,-0.114l-0.151,-0.112l-0.15,-0.112l-0.152,-0.113l-0.151,-0.112l-0.153,-0.11l-0.154,-0.112l-0.153,-0.11l-0.155,-0.11l-0.156,-0.111l-0.156,-0.109l-0.157,-0.108l-0.157,-0.109l-0.158,-0.108l-0.159,-0.107l-0.16,-0.109l-0.16,-0.106l-0.16,-0.106l-0.162,-0.106l-0.162,-0.107l-0.163,-0.105l-0.164,-0.105l-0.163,-0.104l-0.166,-0.104l-0.165,-0.102l-0.167,-0.103l-0.167,-0.103l-0.167,-0.102l-0.169,-0.102l-0.168,-0.101l-0.171,-0.1l-0.17,-0.101l-0.171,-0.099l-0.172,-0.1l-0.172,-0.098l-0.174,-0.098l-0.174,-0.098l-0.174,-0.097l-0.176,-0.096l-0.176,-0.097l-0.177,-0.096l-0.177,-0.095l-0.178,-0.095l-0.179,-0.094l-0.18,-0.093l-0.181,-0.094l-0.18,-0.092l-0.182,-0.091l-0.183,-0.092l-0.182,-0.091l-0.185,-0.091l-0.185,-0.089l-0.184,-0.09l-0.186,-0.088l-0.187,-0.089l-0.188,-0.087l-0.188,-0.087l-0.189,-0.087l-0.191,-0.086l-0.19,-0.085l-0.191,-0.084l-0.191,-0.084l-0.193,-0.084l-0.193,-0.083l-0.195,-0.082l-0.195,-0.082l-0.195,-0.082l-0.196,-0.079l-0.197,-0.081l-0.198,-0.079l-0.199,-0.078l-0.199,-0.079l-0.2,-0.077l-0.2,-0.076l-0.202,-0.077l-0.202,-0.075l-0.204,-0.075l-0.203,-0.074l-0.205,-0.074l-0.205,-0.072l-0.206,-0.073l-0.207,-0.071l-0.208,-0.071l-0.208,-0.071l-0.209,-0.069l-0.21,-0.069l-0.21,-0.068l-0.211,-0.067l-0.213,-0.067l-0.212,-0.066l-0.214,-0.066l-0.214,-0.064l-0.216,-0.064l-0.215,-0.063l-0.217,-0.062l-0.218,-0.062l-0.218,-0.061l-0.219,-0.061l-0.22,-0.059l-0.221,-0.059l-0.221,-0.057l-0.222,-0.058l-0.223,-0.056l-0.224,-0.057l-0.225,-0.055l-0.224,-0.054l-0.227,-0.053l-0.227,-0.053l-0.228,-0.052l-0.227,-0.051l-0.23,-0.05l-0.23,-0.05l-0.232,-0.048l-0.231,-0.049l-0.232,-0.047l-0.233,-0.046l-0.235,-0.045l-0.234,-0.046l-0.236,-0.043l-0.236,-0.043l-0.237,-0.042l-0.239,-0.042l-0.239,-0.041l-0.239,-0.039l-0.241,-0.039l-0.241,-0.038l-0.242,-0.037l-0.242,-0.036l-0.245,-0.035l-0.244,-0.035l-0.246,-0.034l-0.245,-0.033l-0.248,-0.031l-0.248,-0.031l-0.247,-0.031l-0.25,-0.029l-0.25,-0.029l-0.251,-0.026l-0.252,-0.027l-0.253,-0.025l-0.254,-0.026l-0.254,-0.023l-0.255,-0.023l-0.256,-0.021l-0.257,-0.021l-0.258,-0.02l-0.258,-0.02l-0.259,-0.018l-0.261,-0.016l-0.261,-0.017l-0.261,-0.015l-0.263,-0.013l-0.264,-0.014l-0.264,-0.012l-0.265,-0.012l-0.266,-0.01l-0.266,-0.009l-0.268,-0.009l-0.269,-0.006l-0.269,-0.007l-0.27,-0.006l-0.271,-0.004l-0.272,-0.002l-0.272,-0.002l-0.275,-0.001l-0.274,0l-0.275,0l-0.276,0.002l-0.277,0.003l-0.278,0.004l-0.279,0.005l-0.279,0.007l-0.28,0.006l-0.281,0.009l-0.282,0.01l-0.283,0.01l-0.283,0.012l-0.286,0.012l-0.285,0.015l-0.286,0.014l-0.287,0.016l-0.288,0.017l-0.289,0.018l-0.29,0.02l-0.29,0.02l-0.292,0.022l-0.292,0.022l-0.293,0.024l-0.294,0.026l-0.294,0.025l-0.296,0.028l-0.297,0.029l-0.297,0.028l-0.298,0.031l-0.299,0.032l-0.3,0.034l-0.301,0.034l-0.302,0.035l-0.302,0.037l-0.303,0.038l-0.304,0.039l-0.305,0.04l-0.307,0.042l-0.306,0.042l-0.308,0.044l-0.309,0.046l-0.309,0.046l-0.31,0.048l-0.311,0.048l-0.312,0.05l-0.313,0.052l-0.314,0.052l-0.314,0.054l-0.315,0.054l-0.317,0.057l-0.317,0.057l-0.319,0.06l-0.318,0.06l-0.32,0.061l-0.32,0.063l-0.322,0.064l-0.322,0.065l-0.323,0.066l-0.325,0.068l-0.324,0.069l-0.326,0.071l-0.327,0.071l-0.327,0.074l-0.328,0.074l-0.33,0.075l-0.331,0.078l-0.33,0.078l-0.332,0.08l-0.333,0.081l-0.334,0.083l-0.334,0.083l-0.335,0.085l-0.336,0.087l-0.338,0.087l-0.338,0.09l-0.338,0.091l-0.34,0.092l-0.341,0.092l-0.344,0.097l-0.935,-2.704l0.333,-0.14l0.335,-0.138l0.334,-0.136l0.334,-0.136l0.333,-0.134l0.333,-0.131l0.332,-0.132l0.332,-0.129l0.331,-0.129l0.331,-0.126l0.33,-0.126l0.33,-0.123l0.328,-0.122l0.329,-0.122l0.328,-0.119l0.328,-0.119l0.327,-0.116l0.326,-0.116l0.325,-0.114l0.327,-0.113l0.324,-0.11l0.325,-0.111l0.324,-0.108l0.323,-0.108l0.323,-0.105l0.321,-0.105l0.322,-0.103l0.321,-0.101l0.321,-0.101l0.32,-0.098l0.32,-0.098l0.32,-0.096l0.318,-0.095l0.318,-0.094l0.317,-0.092l0.317,-0.092l0.317,-0.089l0.316,-0.088l0.315,-0.087l0.315,-0.085l0.314,-0.085l0.315,-0.083l0.313,-0.082l0.313,-0.08l0.313,-0.079l0.311,-0.078l0.311,-0.076l0.311,-0.075l0.311,-0.074l0.309,-0.072l0.309,-0.072l0.31,-0.07l0.307,-0.068l0.307,-0.068l0.308,-0.066l0.306,-0.065l0.307,-0.063l0.305,-0.064l0.305,-0.06l0.304,-0.06l0.304,-0.059l0.304,-0.057l0.303,-0.057l0.302,-0.054l0.302,-0.054l0.301,-0.052l0.301,-0.051l0.301,-0.051l0.299,-0.048l0.3,-0.047l0.299,-0.046l0.297,-0.046l0.299,-0.043l0.296,-0.043l0.297,-0.041l0.296,-0.041l0.295,-0.038l0.296,-0.038l0.294,-0.036l0.294,-0.036l0.294,-0.034l0.292,-0.033l0.293,-0.031l0.292,-0.031l0.291,-0.03l0.291,-0.028l0.291,-0.027l0.288,-0.026l0.29,-0.025l0.289,-0.024l0.287,-0.022l0.289,-0.021l0.286,-0.021l0.287,-0.018l0.286,-0.018l0.286,-0.017l0.284,-0.015l0.285,-0.015l0.283,-0.013l0.283,-0.012l0.284,-0.011l0.282,-0.01l0.282,-0.009l0.28,-0.007l0.281,-0.006l0.28,-0.006l0.28,-0.004l0.279,-0.003l0.278,-0.003l0.278,-0.001l0.278,0Z" style="fill:#fff;stroke:#fff;stroke-width:1px;"/><path id="Curve8" serif:id="Curve" d="M517.968,352.04l0.174,-0.257l0.59,0.638l1.364,0.679l-0.309,0.458l27.126,29.236l-37.667,-13.591l-0.332,0.492l-1.134,-1.02l-0.635,-0.573l-53.442,-48.114l64.265,32.052Z" style="fill:#fff;stroke:#fff;stroke-width:1px;"/><circle id="Ellipse3" serif:id="Ellipse" cx="512.3" cy="359.865" r="19.578" style="fill:#fff;stroke:#fff;stroke-width:1px;"/></g><g id="Group5" serif:id="Group"><circle id="Ellipse4" serif:id="Ellipse" cx="638.232" cy="340.287" r="19.367" style="fill:#e95c00;"/><circle id="Ellipse5" serif:id="Ellipse" cx="691.108" cy="340.499" r="11.264" style="fill:#e95c00;"/><circle id="Ellipse6" serif:id="Ellipse" cx="385.768" cy="340.287" r="19.367" style="fill:#e95c00;"/><circle id="Ellipse7" serif:id="Ellipse" cx="332.892" cy="340.499" r="11.264" style="fill:#e95c00;"/></g></g></g></g></svg>