<?xml version="1.0" encoding="UTF-8" standalone="no"?>
<!DOCTYPE svg PUBLIC "-//W3C//DTD SVG 1.1//EN" "http://www.w3.org/Graphics/SVG/1.1/DTD/svg11.dtd">
<svg width="100%" height="100%" viewBox="0 0 1024 1024" version="1.1" xmlns="http://www.w3.org/2000/svg" xmlns:xlink="http://www.w3.org/1999/xlink" xml:space="preserve" xmlns:serif="http://www.serif.com/" style="fill-rule:evenodd;clip-rule:evenodd;stroke-linecap:round;stroke-linejoin:round;stroke-miterlimit:1.5;">
    <rect id="Artboard1" x="0" y="0" width="1024" height="1024" style="fill:none;"/>
    <clipPath id="_clip1">
        <rect id="Artboard11" serif:id="Artboard1" x="0" y="0" width="1024" height="1024"/>
    </clipPath>
    <g clip-path="url(#_clip1)">
        <g transform="matrix(1.27325,0,0,1.27325,-135.637,-124.575)">
            <g id="Dark">
                <g>
                    <g transform="matrix(1,0,0,1,20.7427,33.549)">
                        <path d="M820.618,772.462L154.405,772.462L203.405,636.709C213.612,607.764 243.096,604.808 243.096,604.808L487.511,599.463L731.926,604.808C731.926,604.808 761.411,607.764 771.617,636.709L820.618,772.462Z" style="fill:rgb(188,76,0);"/>
                        <path d="M202.502,846.959C173.723,846.959 150.359,822.885 150.359,793.233C150.359,763.581 173.723,739.507 202.502,739.506L772.521,739.506C801.3,739.508 824.664,763.581 824.664,793.233C824.664,822.885 801.299,846.959 772.521,846.959L202.502,846.959Z" style="fill:rgb(242,98,0);"/>
                        <g transform="matrix(1,0,0,1.12198,4.18948,-95.3965)">
                            <g transform="matrix(0.5,0,-0.213919,1,319.314,0)">
                                <g transform="matrix(1.18145,0,0,1,-60.1699,0)">
                                    <path d="M643.412,678.489C643.412,674.449 637.181,671.168 629.506,671.168L345.516,671.168C337.842,671.168 331.611,674.449 331.611,678.489L331.611,710.283C331.611,714.324 337.842,717.604 345.516,717.604L629.506,717.604C637.181,717.604 643.412,714.324 643.412,710.283L643.412,678.489Z" style="fill:rgb(254,254,254);"/>
                                </g>
                                <g transform="matrix(1,0,0,1,3.70348,-0.893003)">
                                    <rect x="338.932" y="678.489" width="289.752" height="3.963" style="fill:rgb(220,206,197);"/>
                                </g>
                                <g transform="matrix(1,0,0,1,3.70348,8.4498)">
                                    <rect x="338.932" y="678.489" width="289.752" height="3.963" style="fill:rgb(220,206,197);"/>
                                </g>
                                <g transform="matrix(1,0,0,1,3.70348,17.7926)">
                                    <rect x="338.932" y="678.489" width="289.752" height="3.963" style="fill:rgb(220,206,197);"/>
                                </g>
                                <g transform="matrix(1,0,0,1,3.70348,27.1354)">
                                    <rect x="338.932" y="678.489" width="289.752" height="3.963" style="fill:rgb(220,206,197);"/>
                                </g>
                            </g>
                            <g transform="matrix(-0.5,0,0.213919,1,647.708,0)">
                                <path d="M643.412,678.489C643.412,674.449 636.05,671.168 626.983,671.168L348.039,671.168C338.972,671.168 331.611,674.449 331.611,678.489L331.611,710.283C331.611,714.324 338.972,717.604 348.039,717.604L626.983,717.604C636.05,717.604 643.412,714.324 643.412,710.283L643.412,678.489Z" style="fill:rgb(254,254,254);"/>
                                <g transform="matrix(1.07017,0,0,1,-20.0804,-0.893003)">
                                    <rect x="338.932" y="678.489" width="289.752" height="3.963" style="fill:rgb(220,206,197);"/>
                                </g>
                                <g transform="matrix(1.07017,0,5.55112e-17,1,-20.0804,8.4498)">
                                    <rect x="338.932" y="678.489" width="289.752" height="3.963" style="fill:rgb(220,206,197);"/>
                                </g>
                                <g transform="matrix(1.06432,0,0,1,-18.097,17.7926)">
                                    <rect x="338.932" y="678.489" width="289.752" height="3.963" style="fill:rgb(220,206,197);"/>
                                </g>
                                <g transform="matrix(1.08397,0,1.11022e-16,1,-24.7561,27.1354)">
                                    <rect x="338.932" y="678.489" width="289.752" height="3.963" style="fill:rgb(220,206,197);"/>
                                </g>
                            </g>
                        </g>
                    </g>
                    <g transform="matrix(1,0,0,0.903833,20.2301,89.5258)">
                        <path d="M630.141,646.602L346.286,646.602C346.286,646.602 339.183,645.964 337.145,644.142C335.106,642.32 334.053,635.669 334.053,635.669L294.243,376.806L682.184,376.806L642.374,635.669C642.374,635.669 641.321,642.32 639.282,644.142C637.25,645.958 630.189,646.598 630.141,646.602Z" style="fill:rgb(181,73,12);"/>
                    </g>
                    <g transform="matrix(0.926216,0,0,1,56.2674,53.2893)">
                        <path d="M839.665,255.789L137.169,255.789C137.169,73.657 423.251,66.188 488.417,66.121L489.985,66.124C558.035,66.316 839.665,75.08 839.665,255.789Z" style="fill:rgb(137,56,0);stroke:black;stroke-width:0.81px;"/>
                    </g>
                    <g transform="matrix(1,0,0,1,20.2301,53.2893)">
                        <rect x="430.14" y="453.097" width="115.769" height="42.187" style="fill:rgb(161,161,161);"/>
                        <path d="M424.953,457.682C424.953,457.682 401.194,452.257 398.009,442.471C394.824,432.685 398.009,395.394 398.009,395.394L578.826,395.394C578.832,395.472 582.008,432.696 578.826,442.471C575.64,452.257 551.882,457.682 551.882,457.682L424.953,457.682Z" style="fill:rgb(224,224,224);"/>
                        <g transform="matrix(1.05547,-0.088398,0.088398,1.05547,-86.6953,21.2815)">
                            <g transform="matrix(0.878488,0.073575,-0.073575,0.878488,90.5285,-52.7116)">
                                <g>
                                    <path d="M569.448,541.672L569.464,541.595L755.317,576.062L742.589,625.017L565.049,562.937C561.43,562.151 559.514,556.756 560.774,550.897C562.015,545.127 565.875,541.045 569.448,541.672Z"/>
                                </g>
                            </g>
                            <g transform="matrix(0.878488,0.073575,-0.073575,0.878488,90.5285,-52.7116)">
                                <path d="M599.786,530.741C599.786,530.741 754.862,552.113 769.446,555.484C784.512,558.966 788.332,578.083 785.358,599.058C782.245,621.008 771.956,636.487 756.276,636.054C746.229,635.776 590.669,593.672 590.669,593.672C579.866,592.094 573.154,576.716 575.69,559.353C578.22,542.028 589.007,529.231 599.786,530.741Z" style="fill:rgb(6,6,6);stroke:black;stroke-width:0.84px;"/>
                            </g>
                            <g transform="matrix(0.929957,0.220633,-0.222451,0.97455,164.124,-141.581)">
                                <ellipse cx="717.968" cy="522.862" rx="16.295" ry="26.19" style="fill:rgb(227,227,227);"/>
                            </g>
                        </g>
                    </g>
                    <g transform="matrix(0.920904,0,0,1,56.9961,53.2893)">
                        <path d="M488.9,406.06C226.36,405.798 137.169,338.564 137.169,255.789C137.169,172.852 248.884,109.521 488.916,109.521L491.723,109.524C729.842,110.016 843.717,173.176 843.717,255.789C843.717,338.726 754.177,406.061 490.443,406.061L488.9,406.06Z" style="fill:rgb(233,92,0);"/>
                    </g>
                    <g transform="matrix(1.17575,0,0,1.17575,-89.3964,-54.6733)">
                        <g transform="matrix(1,0,0,1,20.2301,53.2893)">
                            <circle cx="488.417" cy="257.791" r="101.225" style="fill:rgb(227,227,227);"/>
                        </g>
                        <g transform="matrix(1,0,0,1,20.2301,53.2893)">
                            <circle cx="488.916" cy="257.791" r="89.642" style="fill:rgb(106,106,106);"/>
                        </g>
                        <g transform="matrix(1,0,0,1,20.2301,53.2893)">
                            <circle cx="488.417" cy="257.791" r="68.972" style="fill:white;"/>
                        </g>
                        <g transform="matrix(1,0,0,1,20.2301,53.2893)">
                            <path d="M489.974,206.023L490.224,206.025L490.474,206.027L490.723,206.03L490.972,206.034L491.22,206.039L491.468,206.045L491.715,206.052L491.962,206.06L492.208,206.069L492.454,206.078L492.699,206.089L492.944,206.101L493.189,206.114L493.432,206.127L493.676,206.142L493.918,206.158L494.161,206.174L494.402,206.192L494.644,206.21L494.884,206.229L495.125,206.249L495.364,206.271L495.604,206.293L495.842,206.316L496.081,206.34L496.318,206.365L496.555,206.39L496.792,206.417L497.028,206.444L497.264,206.473L497.499,206.502L497.734,206.533L497.968,206.564L498.201,206.596L498.434,206.629L498.667,206.662L498.899,206.697L499.13,206.733L499.361,206.769L499.592,206.806L499.822,206.844L500.051,206.883L500.28,206.923L500.508,206.964L500.736,207.006L500.963,207.048L501.19,207.091L501.416,207.135L501.642,207.18L501.867,207.226L502.092,207.273L502.316,207.32L502.539,207.369L502.762,207.418L502.985,207.468L503.207,207.518L503.428,207.57L503.649,207.622L503.869,207.675L504.089,207.729L504.308,207.784L504.527,207.84L504.745,207.896L504.963,207.953L505.18,208.011L505.396,208.07L505.612,208.129L505.828,208.19L506.043,208.251L506.257,208.312L506.471,208.375L506.684,208.438L506.896,208.502L507.109,208.567L507.32,208.633L507.531,208.699L507.742,208.766L507.951,208.834L508.161,208.902L508.37,208.972L508.578,209.042L508.785,209.112L508.992,209.184L509.199,209.256L509.405,209.329L509.61,209.403L509.815,209.477L510.019,209.552L510.223,209.628L510.426,209.704L510.629,209.781L510.831,209.859L511.032,209.937L511.233,210.017L511.433,210.096L511.633,210.177L511.832,210.258L512.031,210.34L512.229,210.422L512.426,210.506L512.623,210.589L512.819,210.674L513.015,210.759L513.21,210.845L513.405,210.931L513.599,211.018L513.792,211.106L513.985,211.194L514.177,211.283L514.369,211.373L514.56,211.463L514.75,211.554L514.94,211.645L515.129,211.737L515.318,211.83L515.506,211.923L515.694,212.017L515.881,212.111L516.067,212.206L516.253,212.302L516.438,212.398L516.622,212.495L516.806,212.592L516.99,212.69L517.173,212.789L517.355,212.888L517.537,212.987L517.718,213.087L517.898,213.188L518.078,213.289L518.257,213.391L518.436,213.493L518.614,213.596L518.791,213.7L518.968,213.804L519.144,213.908L519.32,214.013L519.495,214.118L519.67,214.224L519.844,214.331L520.017,214.438L520.189,214.545L520.362,214.653L520.533,214.762L520.704,214.871L520.874,214.98L521.044,215.09L521.213,215.201L521.381,215.312L521.549,215.423L521.716,215.535L521.883,215.647L522.049,215.76L522.215,215.873L522.379,215.987L522.544,216.101L522.707,216.216L522.87,216.331L523.033,216.446L523.194,216.562L523.356,216.679L523.516,216.795L523.676,216.913L523.836,217.03L523.994,217.148L524.152,217.267L524.31,217.385L524.467,217.505L524.623,217.624L524.779,217.744L524.934,217.865L525.088,217.986L525.242,218.107L525.395,218.228L525.548,218.35L525.7,218.473L525.852,218.595L526.002,218.719L526.152,218.842L526.302,218.966L526.451,219.09L526.599,219.214L526.747,219.339L526.894,219.465L527.041,219.59L527.187,219.716L527.332,219.842L527.476,219.969L527.621,220.096L527.764,220.223L527.907,220.35L528.049,220.478L528.19,220.606L528.331,220.735L528.472,220.864L528.611,220.993L528.751,221.122L528.889,221.252L529.027,221.382L529.164,221.512L529.301,221.642L529.437,221.773L529.572,221.904L529.707,222.036L529.841,222.167L529.975,222.299L530.108,222.431L530.24,222.564L530.372,222.696L530.503,222.829L530.633,222.962L530.763,223.096L530.892,223.229L531.021,223.363L531.149,223.497L531.276,223.632L531.403,223.766L531.529,223.901L531.655,224.036L531.779,224.171L531.904,224.307L532.027,224.442L532.15,224.578L532.273,224.714L532.395,224.851L532.516,224.987L532.636,225.124L532.756,225.261L532.876,225.398L532.994,225.535L533.112,225.672L533.23,225.81L533.347,225.948L533.463,226.085L533.578,226.224L533.693,226.362L533.808,226.5L533.922,226.639L534.035,226.777L534.147,226.916L534.259,227.055L534.37,227.194L534.481,227.334L534.591,227.473L534.7,227.613L534.809,227.752L534.92,227.896L535.132,228.172L535.344,228.453L535.553,228.734L535.76,229.015L535.965,229.297L536.167,229.579L536.366,229.862L536.564,230.144L536.758,230.427L536.95,230.711L537.14,230.995L537.327,231.278L537.512,231.563L537.694,231.847L537.874,232.131L538.051,232.416L538.226,232.701L538.398,232.986L538.568,233.27L538.735,233.555L538.9,233.841L539.063,234.126L539.222,234.411L539.38,234.696L539.535,234.981L539.687,235.266L539.837,235.551L539.984,235.835L540.129,236.12L540.272,236.405L540.412,236.689L540.549,236.973L540.684,237.258L540.817,237.541L540.946,237.825L541.074,238.109L541.199,238.392L541.321,238.675L541.441,238.958L541.558,239.241L541.673,239.523L541.785,239.805L541.895,240.087L542.002,240.368L542.107,240.649L542.209,240.93L542.309,241.211L542.405,241.491L542.5,241.771L542.592,242.05L542.681,242.33L542.767,242.609L542.851,242.887L542.933,243.165L543.011,243.443L543.087,243.721L543.161,243.998L543.231,244.276L543.299,244.552L543.364,244.829L543.427,245.105L543.486,245.381L543.542,245.648L543.57,245.794L543.597,245.932L543.623,246.07L543.648,246.207L543.673,246.345L543.697,246.482L543.72,246.62L543.742,246.757L543.764,246.895L543.785,247.032L543.805,247.169L543.824,247.307L543.843,247.444L543.861,247.581L543.878,247.718L543.894,247.855L543.909,247.993L543.924,248.13L543.938,248.267L543.951,248.404L543.964,248.541L543.975,248.679L543.986,248.816L543.996,248.953L544.005,249.09L544.013,249.228L544.021,249.365L544.027,249.48L529.332,249.564L529.337,249.493L529.342,249.444L529.347,249.393L529.352,249.341L529.356,249.289L529.36,249.235L529.364,249.18L529.367,249.124L529.37,249.068L529.373,249.01L529.375,248.952L529.377,248.892L529.379,248.832L529.38,248.771L529.381,248.708L529.382,248.645L529.382,248.581L529.382,248.517L529.381,248.451L529.38,248.384L529.379,248.317L529.377,248.249L529.375,248.18L529.372,248.11L529.369,248.04L529.366,247.968L529.362,247.896L529.359,247.831L529.348,247.675L529.336,247.524L529.323,247.37L529.307,247.213L529.29,247.053L529.272,246.891L529.251,246.726L529.228,246.559L529.204,246.389L529.177,246.216L529.149,246.042L529.118,245.864L529.086,245.685L529.052,245.503L529.015,245.319L528.977,245.134L528.937,244.946L528.894,244.756L528.85,244.564L528.804,244.37L528.755,244.174L528.705,243.977L528.652,243.777L528.598,243.576L528.541,243.374L528.482,243.169L528.421,242.964L528.358,242.756L528.293,242.547L528.226,242.337L528.157,242.125L528.086,241.912L528.012,241.698L527.937,241.482L527.859,241.265L527.779,241.047L527.697,240.828L527.613,240.607L527.527,240.386L527.438,240.163L527.348,239.939L527.255,239.715L527.16,239.489L527.064,239.263L526.964,239.035L526.863,238.807L526.76,238.578L526.654,238.349L526.546,238.118L526.436,237.887L526.324,237.655L526.21,237.423L526.094,237.19L525.975,236.956L525.854,236.722L525.731,236.488L525.606,236.253L525.479,236.017L525.349,235.781L525.218,235.545L525.084,235.309L524.948,235.072L524.806,234.831L524.739,234.716L524.669,234.597L524.598,234.478L524.526,234.36L524.454,234.241L524.381,234.122L524.308,234.003L524.234,233.884L524.16,233.765L524.085,233.646L524.009,233.527L523.933,233.408L523.857,233.289L523.779,233.17L523.702,233.05L523.623,232.931L523.545,232.812L523.465,232.693L523.385,232.574L523.305,232.455L523.224,232.336L523.142,232.217L523.06,232.098L522.977,231.979L522.894,231.86L522.81,231.741L522.726,231.622L522.641,231.503L522.556,231.384L522.47,231.266L522.383,231.147L522.296,231.028L522.208,230.91L522.12,230.791L522.031,230.673L521.942,230.554L521.852,230.436L521.761,230.318L521.67,230.199L521.579,230.081L521.486,229.963L521.394,229.845L521.3,229.727L521.206,229.61L521.112,229.492L521.017,229.375L520.921,229.257L520.825,229.14L520.729,229.023L520.631,228.905L520.533,228.789L520.435,228.672L520.336,228.555L520.237,228.438L520.136,228.322L520.036,228.206L519.935,228.089L519.833,227.973L519.73,227.858L519.627,227.742L519.524,227.626L519.42,227.511L519.315,227.396L519.21,227.28L519.104,227.166L518.998,227.051L518.891,226.936L518.783,226.822L518.675,226.708L518.567,226.594L518.458,226.48L518.348,226.366L518.237,226.253L518.126,226.139L518.015,226.026L517.903,225.913L517.79,225.801L517.677,225.688L517.563,225.576L517.449,225.464L517.334,225.352L517.218,225.241L517.102,225.129L516.985,225.018L516.868,224.907L516.75,224.797L516.631,224.686L516.512,224.576L516.393,224.466L516.273,224.356L516.152,224.247L516.03,224.138L515.908,224.029L515.786,223.92L515.663,223.812L515.539,223.704L515.414,223.596L515.29,223.489L515.164,223.381L515.038,223.274L514.911,223.168L514.784,223.061L514.656,222.955L514.528,222.849L514.398,222.744L514.269,222.638L514.139,222.533L514.008,222.429L513.876,222.325L513.744,222.221L513.611,222.117L513.478,222.013L513.344,221.91L513.21,221.808L513.075,221.705L512.939,221.603L512.803,221.502L512.666,221.4L512.529,221.299L512.391,221.199L512.252,221.098L512.113,220.998L511.973,220.899L511.832,220.799L511.691,220.7L511.549,220.602L511.407,220.504L511.264,220.406L511.12,220.309L510.976,220.211L510.831,220.115L510.686,220.019L510.54,219.923L510.393,219.827L510.246,219.732L510.098,219.637L509.95,219.543L509.8,219.449L509.651,219.356L509.5,219.263L509.349,219.17L509.198,219.078L509.045,218.986L508.893,218.894L508.739,218.804L508.585,218.713L508.43,218.623L508.275,218.533L508.119,218.444L507.962,218.355L507.805,218.267L507.647,218.179L507.488,218.092L507.329,218.005L507.169,217.918L507.009,217.832L506.848,217.746L506.686,217.661L506.523,217.577L506.36,217.492L506.197,217.409L506.032,217.326L505.867,217.243L505.702,217.161L505.535,217.079L505.368,216.998L505.201,216.917L505.033,216.837L504.864,216.757L504.694,216.678L504.524,216.599L504.353,216.521L504.181,216.443L504.009,216.366L503.836,216.29L503.663,216.214L503.489,216.138L503.314,216.063L503.138,215.989L502.962,215.915L502.785,215.841L502.608,215.769L502.43,215.696L502.251,215.625L502.071,215.554L501.891,215.483L501.71,215.413L501.529,215.344L501.347,215.275L501.164,215.207L500.98,215.139L500.796,215.072L500.611,215.005L500.425,214.94L500.239,214.874L500.052,214.81L499.864,214.746L499.676,214.682L499.487,214.619L499.297,214.557L499.107,214.495L498.916,214.435L498.724,214.374L498.532,214.314L498.338,214.255L498.145,214.197L497.95,214.139L497.755,214.082L497.559,214.026L497.362,213.97L497.165,213.915L496.967,213.86L496.768,213.806L496.568,213.753L496.368,213.701L496.167,213.649L495.966,213.598L495.763,213.547L495.56,213.497L495.357,213.448L495.152,213.4L494.947,213.352L494.741,213.305L494.535,213.259L494.327,213.214L494.119,213.169L493.91,213.125L493.701,213.081L493.491,213.039L493.28,212.997L493.068,212.956L492.856,212.915L492.643,212.876L492.429,212.837L492.215,212.799L491.999,212.761L491.783,212.724L491.567,212.689L491.349,212.653L491.131,212.619L490.912,212.586L490.693,212.553L490.472,212.521L490.251,212.49L490.029,212.459L489.807,212.429L489.583,212.401L489.359,212.373L489.135,212.345L488.909,212.319L488.683,212.293L488.456,212.269L488.228,212.245L488,212.222L487.77,212.199L487.54,212.178L487.31,212.157L487.078,212.138L486.846,212.119L486.613,212.101L486.379,212.083L486.145,212.067L485.909,212.052L485.673,212.037L485.437,212.023L485.199,212.011L484.961,211.999L484.722,211.988L484.482,211.977L484.242,211.968L484.001,211.96L483.759,211.952L483.516,211.946L483.272,211.94L483.028,211.935L482.783,211.931L482.537,211.929L482.291,211.927L482.043,211.926L481.795,211.926L481.546,211.926L481.297,211.928L481.046,211.931L480.795,211.935L480.543,211.939L480.29,211.945L480.037,211.951L479.783,211.959L479.528,211.968L479.272,211.977L479.016,211.988L478.758,211.999L478.5,212.012L478.241,212.025L477.982,212.039L477.721,212.055L477.46,212.071L477.198,212.089L476.936,212.107L476.672,212.127L476.408,212.147L476.143,212.169L475.877,212.192L475.611,212.215L475.343,212.24L475.075,212.266L474.806,212.292L474.537,212.32L474.266,212.349L473.995,212.379L473.723,212.41L473.45,212.442L473.177,212.475L472.903,212.51L472.628,212.545L472.352,212.581L472.075,212.619L471.798,212.657L471.519,212.697L471.24,212.738L470.961,212.78L470.68,212.823L470.399,212.867L470.117,212.912L469.834,212.959L469.55,213.006L469.266,213.055L468.981,213.104L468.695,213.155L468.408,213.207L468.12,213.261L467.832,213.315L467.543,213.37L467.253,213.427L466.962,213.485L466.671,213.544L466.379,213.604L466.085,213.665L465.792,213.728L465.497,213.792L465.202,213.856L464.906,213.923L464.609,213.99L464.311,214.058L464.012,214.128L463.713,214.199L463.413,214.271L463.112,214.344L462.81,214.419L462.508,214.494L462.205,214.571L461.901,214.65L461.596,214.729L461.29,214.81L460.984,214.892L460.677,214.975L460.369,215.059L460.058,215.146L459.212,212.701L459.513,212.575L459.816,212.45L460.118,212.327L460.42,212.204L460.721,212.083L461.022,211.964L461.323,211.845L461.623,211.728L461.922,211.612L462.221,211.498L462.52,211.384L462.818,211.273L463.115,211.162L463.412,211.052L463.709,210.944L464.005,210.837L464.301,210.732L464.596,210.627L464.89,210.524L465.185,210.422L465.478,210.322L465.772,210.222L466.065,210.124L466.357,210.027L466.649,209.932L466.94,209.837L467.231,209.744L467.521,209.652L467.811,209.561L468.101,209.472L468.39,209.384L468.679,209.297L468.967,209.211L469.254,209.126L469.541,209.043L469.828,208.96L470.114,208.879L470.4,208.8L470.685,208.721L470.97,208.644L471.254,208.567L471.538,208.492L471.821,208.418L472.104,208.346L472.387,208.274L472.669,208.204L472.95,208.135L473.231,208.067L473.512,208L473.792,207.935L474.071,207.87L474.351,207.807L474.629,207.745L474.907,207.684L475.185,207.624L475.462,207.565L475.739,207.508L476.015,207.451L476.291,207.396L476.566,207.342L476.841,207.289L477.116,207.237L477.39,207.186L477.663,207.137L477.936,207.088L478.208,207.041L478.48,206.995L478.752,206.949L479.023,206.905L479.294,206.863L479.564,206.821L479.833,206.78L480.103,206.741L480.371,206.702L480.639,206.665L480.907,206.628L481.174,206.593L481.441,206.559L481.707,206.526L481.973,206.494L482.239,206.463L482.503,206.433L482.768,206.405L483.032,206.377L483.295,206.35L483.558,206.325L483.821,206.3L484.082,206.277L484.344,206.254L484.605,206.233L484.865,206.213L485.126,206.194L485.385,206.175L485.644,206.158L485.903,206.142L486.161,206.127L486.418,206.113L486.676,206.1L486.932,206.088L487.188,206.077L487.444,206.067L487.699,206.058L487.954,206.05L488.208,206.044L488.462,206.038L488.715,206.033L488.968,206.029L489.22,206.026L489.472,206.024L489.723,206.023L489.974,206.023Z" style="fill:rgb(179,179,179);"/>
                        </g>
                        <g transform="matrix(0.767339,-1.13879,0.882813,0.594856,-91.7208,733.026)">
                            <path d="M494.802,255.789L495.006,255.789L494.875,256.508L495.006,257.791L494.642,257.791L488.658,290.776L482.22,257.791L481.829,257.791L481.969,256.508L482.048,255.789L488.658,195.306L494.802,255.789Z"/>
                        </g>
                        <g transform="matrix(2.09846,0,0,2.09846,-516.275,-212.18)">
                            <circle cx="488.417" cy="257.791" r="8.436"/>
                        </g>
                    </g>
                </g>
            </g>
        </g>
    </g>
</svg>
