<?xml version="1.0" encoding="UTF-8" standalone="no"?><!DOCTYPE svg PUBLIC "-//W3C//DTD SVG 1.1//EN" "http://www.w3.org/Graphics/SVG/1.1/DTD/svg11.dtd"><svg width="100%" height="100%" viewBox="0 0 1024 1024" version="1.1" xmlns="http://www.w3.org/2000/svg" xmlns:xlink="http://www.w3.org/1999/xlink" xml:space="preserve" xmlns:serif="http://www.serif.com/" style="fill-rule:evenodd;clip-rule:evenodd;stroke-linejoin:round;stroke-miterlimit:2;"><g id="Icon--Flat-" serif:id="Icon (Flat)"><circle cx="512" cy="512" r="478.822" style="fill:#fff;"/><circle cx="512" cy="512" r="432.809" style="fill:#e95c00;"/><g><g id="Group"><path id="Curve" d="M769.052,720.611l-514.104,0l37.812,-104.758c7.877,-22.337 30.629,-24.618 30.629,-24.618l188.611,-4.124l188.61,4.124c0,0 22.753,2.281 30.629,24.618l37.813,104.758Z" style="fill:#fff;"/><path id="Curve1" serif:id="Curve" d="M292.063,778.099c-22.208,0 -40.238,-18.578 -40.238,-41.46c0,-22.881 18.03,-41.459 40.238,-41.46l439.874,0c22.208,0.002 40.238,18.579 40.238,41.46c0,22.882 -18.031,41.46 -40.238,41.46l-439.874,0Z" style="fill:#fff;"/><g id="Group1" serif:id="Group"><g id="Group2" serif:id="Group"><path id="Curve2" serif:id="Curve" d="M543.519,638.344c0.667,-3.498 -1.632,-6.339 -5.13,-6.339l-129.458,0c-3.498,0 -6.88,2.841 -7.547,6.339l-5.248,27.527c-0.667,3.499 1.632,6.339 5.13,6.339l129.457,0c3.499,0 6.881,-2.84 7.548,-6.339l5.248,-27.527Z" style="fill:#e95c00;"/><path id="Rectangle" d="M517.583,637.571l-111.798,0l-0.654,3.431l111.798,0l0.654,-3.431Z" style="fill:#fff;"/><path id="Rectangle1" serif:id="Rectangle" d="M516.041,645.66l-111.798,0l-0.655,3.431l111.799,0l0.654,-3.431Z" style="fill:#fff;"/><path id="Rectangle2" serif:id="Rectangle" d="M514.499,653.749l-111.799,0l-0.654,3.431l111.798,0l0.655,-3.431Z" style="fill:#fff;"/><path id="Rectangle3" serif:id="Rectangle" d="M512.956,661.838l-111.798,0l-0.654,3.431l111.798,0l0.654,-3.431Z" style="fill:#fff;"/></g><g id="Group3" serif:id="Group"><path id="Curve3" serif:id="Curve" d="M502.602,638.344c-0.667,-3.498 1.632,-6.339 5.131,-6.339l107.628,0c3.498,0 6.88,2.841 7.547,6.339l5.248,27.527c0.667,3.499 -1.631,6.339 -5.13,6.339l-107.628,0c-3.498,0 -6.88,-2.84 -7.547,-6.339l-5.249,-27.527Z" style="fill:#e95c00;"/><path id="Rectangle4" serif:id="Rectangle" d="M498.864,637.571l119.643,0l0.654,3.431l-119.643,0l-0.654,-3.431Z" style="fill:#fff;"/><path id="Rectangle5" serif:id="Rectangle" d="M500.406,645.66l119.643,0l0.655,3.431l-119.644,0l-0.654,-3.431Z" style="fill:#fff;"/><path id="Rectangle6" serif:id="Rectangle" d="M502.602,653.749l118.989,0l0.655,3.431l-118.989,0l-0.655,-3.431Z" style="fill:#fff;"/><path id="Rectangle7" serif:id="Rectangle" d="M501.947,661.838l121.186,0l0.655,3.431l-121.186,0l-0.655,-3.431Z" style="fill:#fff;"/></g></g></g><path id="Curve4" serif:id="Curve" d="M621.669,618.699l-219.046,0c0,0 -5.481,-0.445 -7.054,-1.716c-1.573,-1.271 -2.386,-5.91 -2.386,-5.91l-30.72,-180.549l299.367,0l-30.721,180.549c0,0 -0.813,4.639 -2.386,5.91c-1.568,1.266 -7.017,1.713 -7.054,1.716Z" style="fill:#fff;"/><path id="Curve5" serif:id="Curve" d="M763.356,337.137l-502.105,0c0,-140.548 204.475,-146.312 251.052,-146.364l1.121,0.003c48.638,0.148 249.932,6.911 249.932,146.361Z" style="fill:#fff;"/><path id="Curve6" serif:id="Curve" d="M511.207,453.098c-186.573,-0.202 -249.956,-52.085 -249.956,-115.961c0,-64.001 79.389,-112.873 249.967,-112.873l1.995,0.003c169.218,0.379 250.143,49.119 250.143,112.87c0,64.001 -63.632,115.962 -251.053,115.962l-1.096,-0.001Z" style="fill:#fff;"/><g id="Group4" serif:id="Group"><circle id="Ellipse" cx="512.302" cy="338.681" r="91.842" style="fill:#e95c00;"/><circle id="Ellipse1" serif:id="Ellipse" cx="512.755" cy="338.681" r="81.333" style="fill:#fff;"/><circle id="Ellipse2" serif:id="Ellipse" cx="512.302" cy="338.681" r="77.128" style="fill:#e95c00;"/><path id="Curve7" serif:id="Curve" d="M514.043,280.792l0.559,0.004l0.279,0.003l0.278,0.005l0.277,0.006l0.278,0.006l0.276,0.008l0.276,0.009l0.55,0.02l0.274,0.012l0.274,0.014l0.274,0.014l0.272,0.015l0.273,0.017l0.27,0.018l0.272,0.017l0.27,0.021l0.27,0.02l0.269,0.021l0.269,0.022l0.267,0.025l0.269,0.025l0.266,0.025l0.267,0.027l0.53,0.056l0.265,0.03l0.264,0.03l0.264,0.033l0.263,0.032l0.263,0.035l0.261,0.035l0.261,0.035l0.521,0.074l0.259,0.039l0.517,0.081l0.258,0.041l0.257,0.043l0.257,0.043l0.256,0.045l0.255,0.046l0.255,0.047l0.253,0.047l0.254,0.048l0.253,0.049l0.253,0.05l0.251,0.052l0.252,0.052l0.25,0.053l0.499,0.11l0.25,0.055l0.248,0.056l0.494,0.117l0.246,0.059l0.246,0.06l0.245,0.062l0.245,0.062l0.244,0.063l0.243,0.064l0.243,0.065l0.483,0.132l0.242,0.068l0.24,0.068l0.239,0.068l0.24,0.071l0.238,0.07l0.237,0.072l0.238,0.072l0.472,0.148l0.236,0.075l0.234,0.076l0.235,0.076l0.233,0.078l0.233,0.079l0.231,0.078l0.463,0.161l0.231,0.082l0.458,0.165l0.228,0.084l0.228,0.085l0.227,0.085l0.227,0.086l0.226,0.087l0.225,0.087l0.225,0.09l0.223,0.088l0.224,0.091l0.223,0.09l0.222,0.092l0.222,0.092l0.22,0.094l0.22,0.093l0.439,0.19l0.436,0.192l0.217,0.097l0.431,0.197l0.215,0.1l0.215,0.1l0.213,0.101l0.425,0.203l0.211,0.103l0.212,0.104l0.21,0.104l0.21,0.105l0.209,0.105l0.208,0.107l0.208,0.107l0.207,0.107l0.412,0.217l0.206,0.11l0.204,0.111l0.407,0.221l0.203,0.112l0.402,0.226l0.401,0.228l0.199,0.115l0.395,0.233l0.197,0.116l0.197,0.117l0.196,0.118l0.195,0.118l0.195,0.12l0.193,0.12l0.193,0.119l0.193,0.121l0.383,0.244l0.19,0.122l0.19,0.123l0.189,0.124l0.376,0.248l0.373,0.251l0.371,0.252l0.184,0.128l0.184,0.127l0.547,0.386l0.18,0.13l0.181,0.131l0.179,0.129l0.179,0.132l0.179,0.131l0.177,0.132l0.176,0.133l0.177,0.132l0.176,0.134l0.174,0.133l0.175,0.135l0.173,0.135l0.344,0.27l0.171,0.136l0.171,0.136l0.17,0.138l0.17,0.136l0.168,0.139l0.168,0.137l0.168,0.139l0.166,0.139l0.166,0.138l0.165,0.14l0.165,0.141l0.164,0.14l0.163,0.141l0.162,0.141l0.161,0.142l0.163,0.142l0.319,0.284l0.159,0.143l0.158,0.143l0.315,0.288l0.156,0.145l0.156,0.144l0.309,0.291l0.306,0.29l0.152,0.147l0.151,0.146l0.151,0.148l0.15,0.147l0.15,0.147l0.149,0.148l0.147,0.149l0.148,0.147l0.146,0.149l0.146,0.149l0.145,0.149l0.144,0.149l0.145,0.15l0.143,0.15l0.142,0.151l0.142,0.15l0.282,0.302l0.138,0.151l0.14,0.152l0.138,0.151l0.275,0.304l0.136,0.153l0.135,0.152l0.403,0.46l0.264,0.306l0.132,0.154l0.131,0.155l0.129,0.153l0.129,0.155l0.257,0.309l0.128,0.155l0.126,0.155l0.251,0.311l0.124,0.155l0.124,0.157l0.123,0.155l0.122,0.157l0.122,0.155l0.124,0.161l0.237,0.309l0.237,0.314l0.234,0.314l0.231,0.314l0.229,0.316l0.226,0.315l0.223,0.316l0.221,0.316l0.217,0.316l0.215,0.318l0.212,0.317l0.209,0.317l0.207,0.319l0.204,0.317l0.201,0.318l0.198,0.318l0.196,0.319l0.192,0.319l0.19,0.317l0.187,0.319l0.184,0.32l0.183,0.319l0.177,0.318l0.177,0.319l0.173,0.319l0.17,0.318l0.168,0.319l0.164,0.318l0.163,0.318l0.16,0.319l0.156,0.318l0.153,0.317l0.151,0.319l0.149,0.316l0.144,0.318l0.143,0.318l0.14,0.316l0.137,0.317l0.134,0.316l0.131,0.316l0.128,0.316l0.125,0.315l0.123,0.316l0.12,0.314l0.118,0.314l0.114,0.314l0.111,0.314l0.108,0.314l0.106,0.313l0.103,0.312l0.099,0.313l0.097,0.312l0.093,0.311l0.092,0.31l0.087,0.311l0.085,0.311l0.083,0.31l0.078,0.311l0.076,0.308l0.073,0.31l0.071,0.309l0.066,0.309l0.062,0.298l0.032,0.163l0.03,0.155l0.029,0.154l0.028,0.153l0.028,0.155l0.027,0.153l0.025,0.154l0.025,0.153l0.024,0.155l0.024,0.153l0.022,0.153l0.022,0.154l0.021,0.153l0.02,0.154l0.019,0.153l0.018,0.153l0.017,0.154l0.016,0.154l0.016,0.153l0.029,0.306l0.012,0.154l0.013,0.154l0.011,0.153l0.01,0.153l0.009,0.154l0.009,0.154l0.007,0.128l-16.433,0.094l0.006,-0.079l0.005,-0.055l0.006,-0.057l0.005,-0.058l0.005,-0.058l0.004,-0.061l0.005,-0.061l0.003,-0.063l0.003,-0.063l0.004,-0.064l0.002,-0.065l0.002,-0.067l0.002,-0.067l0.002,-0.069l0.001,-0.07l0.001,-0.071l0,-0.071l0,-0.072l-0.001,-0.073l-0.001,-0.075l-0.002,-0.075l-0.002,-0.076l-0.002,-0.078l-0.003,-0.078l-0.004,-0.078l-0.003,-0.081l-0.005,-0.08l-0.003,-0.073l-0.012,-0.174l-0.014,-0.169l-0.014,-0.172l-0.018,-0.176l-0.019,-0.179l-0.02,-0.181l-0.024,-0.184l-0.025,-0.187l-0.027,-0.19l-0.03,-0.194l-0.032,-0.194l-0.034,-0.199l-0.036,-0.201l-0.038,-0.203l-0.042,-0.206l-0.042,-0.207l-0.045,-0.21l-0.048,-0.212l-0.049,-0.215l-0.052,-0.217l-0.054,-0.219l-0.056,-0.22l-0.059,-0.224l-0.061,-0.225l-0.064,-0.226l-0.066,-0.229l-0.068,-0.229l-0.07,-0.233l-0.073,-0.234l-0.075,-0.234l-0.077,-0.237l-0.079,-0.239l-0.083,-0.239l-0.084,-0.242l-0.087,-0.242l-0.09,-0.244l-0.091,-0.245l-0.094,-0.247l-0.097,-0.247l-0.099,-0.249l-0.101,-0.251l-0.104,-0.25l-0.106,-0.253l-0.107,-0.253l-0.112,-0.255l-0.113,-0.255l-0.115,-0.256l-0.119,-0.256l-0.121,-0.258l-0.123,-0.259l-0.125,-0.259l-0.127,-0.259l-0.13,-0.261l-0.133,-0.262l-0.135,-0.261l-0.138,-0.262l-0.14,-0.263l-0.142,-0.264l-0.145,-0.264l-0.147,-0.264l-0.149,-0.263l-0.152,-0.265l-0.159,-0.27l-0.075,-0.129l-0.078,-0.133l-0.08,-0.133l-0.08,-0.132l-0.081,-0.133l-0.082,-0.133l-0.081,-0.133l-0.083,-0.133l-0.083,-0.133l-0.084,-0.133l-0.085,-0.133l-0.084,-0.133l-0.085,-0.133l-0.088,-0.133l-0.086,-0.135l-0.088,-0.133l-0.087,-0.133l-0.09,-0.133l-0.089,-0.133l-0.09,-0.133l-0.09,-0.133l-0.092,-0.133l-0.092,-0.133l-0.093,-0.133l-0.092,-0.133l-0.094,-0.133l-0.094,-0.133l-0.095,-0.133l-0.095,-0.134l-0.096,-0.132l-0.098,-0.133l-0.097,-0.133l-0.098,-0.132l-0.099,-0.133l-0.099,-0.132l-0.1,-0.133l-0.101,-0.132l-0.101,-0.132l-0.102,-0.133l-0.102,-0.132l-0.104,-0.132l-0.103,-0.132l-0.105,-0.131l-0.105,-0.131l-0.105,-0.132l-0.106,-0.131l-0.108,-0.132l-0.107,-0.131l-0.107,-0.131l-0.11,-0.132l-0.11,-0.129l-0.109,-0.131l-0.111,-0.131l-0.111,-0.131l-0.112,-0.13l-0.112,-0.129l-0.113,-0.131l-0.114,-0.13l-0.115,-0.128l-0.116,-0.13l-0.115,-0.13l-0.116,-0.129l-0.118,-0.128l-0.117,-0.13l-0.118,-0.127l-0.119,-0.129l-0.12,-0.129l-0.12,-0.127l-0.121,-0.127l-0.121,-0.128l-0.122,-0.127l-0.123,-0.128l-0.124,-0.126l-0.124,-0.128l-0.124,-0.126l-0.126,-0.126l-0.126,-0.126l-0.126,-0.126l-0.128,-0.125l-0.127,-0.126l-0.129,-0.125l-0.13,-0.124l-0.129,-0.125l-0.131,-0.124l-0.131,-0.124l-0.132,-0.123l-0.133,-0.125l-0.133,-0.123l-0.133,-0.123l-0.134,-0.123l-0.136,-0.121l-0.136,-0.122l-0.136,-0.122l-0.137,-0.122l-0.137,-0.121l-0.139,-0.121l-0.14,-0.12l-0.138,-0.12l-0.141,-0.121l-0.141,-0.12l-0.142,-0.118l-0.142,-0.12l-0.143,-0.118l-0.144,-0.119l-0.145,-0.117l-0.144,-0.119l-0.146,-0.117l-0.146,-0.116l-0.148,-0.117l-0.147,-0.116l-0.149,-0.116l-0.149,-0.117l-0.15,-0.115l-0.149,-0.114l-0.151,-0.115l-0.152,-0.114l-0.153,-0.113l-0.153,-0.114l-0.153,-0.113l-0.154,-0.112l-0.156,-0.113l-0.155,-0.112l-0.157,-0.11l-0.157,-0.112l-0.158,-0.111l-0.159,-0.109l-0.159,-0.11l-0.16,-0.11l-0.161,-0.108l-0.161,-0.11l-0.162,-0.107l-0.162,-0.107l-0.163,-0.108l-0.165,-0.107l-0.164,-0.106l-0.165,-0.107l-0.166,-0.105l-0.168,-0.105l-0.166,-0.104l-0.169,-0.104l-0.169,-0.104l-0.169,-0.103l-0.171,-0.103l-0.17,-0.102l-0.172,-0.101l-0.172,-0.102l-0.174,-0.1l-0.173,-0.101l-0.174,-0.1l-0.176,-0.099l-0.176,-0.099l-0.176,-0.098l-0.178,-0.097l-0.178,-0.098l-0.179,-0.097l-0.179,-0.096l-0.18,-0.096l-0.181,-0.095l-0.182,-0.094l-0.182,-0.095l-0.183,-0.093l-0.184,-0.093l-0.185,-0.093l-0.184,-0.091l-0.187,-0.092l-0.187,-0.091l-0.186,-0.09l-0.188,-0.09l-0.189,-0.089l-0.19,-0.088l-0.191,-0.089l-0.191,-0.087l-0.192,-0.087l-0.192,-0.086l-0.194,-0.085l-0.193,-0.085l-0.195,-0.085l-0.196,-0.084l-0.196,-0.083l-0.197,-0.083l-0.198,-0.082l-0.198,-0.081l-0.199,-0.082l-0.2,-0.079l-0.202,-0.079l-0.201,-0.08l-0.202,-0.078l-0.203,-0.077l-0.203,-0.077l-0.205,-0.076l-0.206,-0.076l-0.205,-0.075l-0.207,-0.075l-0.208,-0.073l-0.208,-0.074l-0.209,-0.071l-0.211,-0.072l-0.21,-0.071l-0.211,-0.071l-0.213,-0.069l-0.212,-0.07l-0.214,-0.067l-0.214,-0.068l-0.215,-0.067l-0.217,-0.066l-0.216,-0.065l-0.218,-0.065l-0.218,-0.063l-0.219,-0.063l-0.22,-0.063l-0.221,-0.061l-0.221,-0.062l-0.223,-0.06l-0.223,-0.059l-0.224,-0.058l-0.225,-0.059l-0.224,-0.057l-0.227,-0.057l-0.227,-0.056l-0.227,-0.054l-0.23,-0.054l-0.229,-0.054l-0.23,-0.052l-0.231,-0.052l-0.232,-0.05l-0.233,-0.05l-0.234,-0.05l-0.233,-0.049l-0.235,-0.047l-0.236,-0.047l-0.237,-0.046l-0.237,-0.045l-0.238,-0.044l-0.24,-0.044l-0.239,-0.042l-0.242,-0.043l-0.241,-0.041l-0.242,-0.039l-0.243,-0.04l-0.244,-0.038l-0.245,-0.037l-0.245,-0.037l-0.247,-0.036l-0.247,-0.035l-0.248,-0.034l-0.249,-0.034l-0.25,-0.031l-0.251,-0.032l-0.25,-0.031l-0.253,-0.029l-0.253,-0.029l-0.253,-0.027l-0.255,-0.027l-0.255,-0.025l-0.258,-0.026l-0.257,-0.024l-0.257,-0.023l-0.259,-0.021l-0.26,-0.022l-0.26,-0.02l-0.262,-0.02l-0.262,-0.018l-0.264,-0.016l-0.264,-0.017l-0.263,-0.016l-0.267,-0.013l-0.266,-0.014l-0.267,-0.012l-0.268,-0.012l-0.269,-0.01l-0.269,-0.009l-0.271,-0.009l-0.272,-0.007l-0.272,-0.007l-0.273,-0.005l-0.274,-0.005l-0.275,-0.002l-0.275,-0.002l-0.278,-0.001l-0.277,0l-0.279,0l-0.278,0.002l-0.281,0.003l-0.28,0.005l-0.282,0.004l-0.283,0.007l-0.283,0.007l-0.284,0.009l-0.285,0.01l-0.286,0.01l-0.287,0.012l-0.288,0.012l-0.289,0.015l-0.289,0.014l-0.29,0.016l-0.292,0.018l-0.292,0.018l-0.293,0.02l-0.293,0.02l-0.295,0.022l-0.295,0.023l-0.296,0.024l-0.298,0.026l-0.297,0.026l-0.3,0.028l-0.3,0.029l-0.301,0.029l-0.3,0.031l-0.303,0.033l-0.303,0.033l-0.305,0.035l-0.305,0.036l-0.305,0.037l-0.307,0.039l-0.307,0.039l-0.309,0.04l-0.309,0.043l-0.31,0.042l-0.312,0.045l-0.312,0.046l-0.312,0.047l-0.314,0.048l-0.315,0.049l-0.315,0.05l-0.316,0.053l-0.318,0.052l-0.318,0.055l-0.318,0.055l-0.32,0.057l-0.321,0.058l-0.322,0.06l-0.322,0.061l-0.323,0.061l-0.325,0.064l-0.325,0.065l-0.325,0.066l-0.327,0.067l-0.329,0.068l-0.327,0.071l-0.33,0.071l-0.33,0.072l-0.331,0.075l-0.332,0.075l-0.334,0.076l-0.334,0.078l-0.334,0.079l-0.336,0.081l-0.336,0.082l-0.338,0.083l-0.338,0.084l-0.339,0.086l-0.339,0.089l-0.342,0.088l-0.342,0.091l-0.342,0.091l-0.343,0.093l-0.345,0.094l-0.347,0.097l-0.946,-2.734l0.336,-0.141l0.339,-0.139l0.338,-0.138l0.337,-0.138l0.337,-0.135l0.337,-0.133l0.336,-0.133l0.336,-0.131l0.334,-0.13l0.334,-0.127l0.335,-0.127l0.333,-0.125l0.332,-0.124l0.332,-0.123l0.332,-0.12l0.331,-0.12l0.331,-0.118l0.33,-0.117l0.329,-0.115l0.33,-0.114l0.327,-0.112l0.329,-0.112l0.328,-0.109l0.326,-0.109l0.327,-0.106l0.325,-0.106l0.326,-0.104l0.324,-0.103l0.324,-0.102l0.325,-0.1l0.323,-0.098l0.323,-0.097l0.322,-0.096l0.321,-0.095l0.321,-0.093l0.321,-0.093l0.32,-0.091l0.319,-0.088l0.319,-0.088l0.319,-0.086l0.317,-0.087l0.318,-0.083l0.316,-0.083l0.317,-0.081l0.316,-0.08l0.316,-0.078l0.314,-0.078l0.314,-0.076l0.314,-0.075l0.314,-0.072l0.312,-0.073l0.313,-0.07l0.311,-0.07l0.31,-0.068l0.311,-0.067l0.31,-0.066l0.31,-0.064l0.308,-0.064l0.309,-0.061l0.308,-0.06l0.307,-0.06l0.308,-0.058l0.306,-0.057l0.305,-0.055l0.306,-0.054l0.304,-0.053l0.304,-0.051l0.304,-0.052l0.303,-0.049l0.303,-0.047l0.302,-0.047l0.301,-0.046l0.302,-0.043l0.299,-0.044l0.3,-0.041l0.3,-0.042l0.298,-0.039l0.299,-0.038l0.297,-0.037l0.298,-0.036l0.297,-0.034l0.296,-0.034l0.296,-0.031l0.295,-0.032l0.294,-0.03l0.294,-0.028l0.294,-0.028l0.292,-0.025l0.293,-0.026l0.292,-0.024l0.291,-0.022l0.292,-0.021l0.289,-0.021l0.29,-0.019l0.29,-0.018l0.288,-0.017l0.288,-0.016l0.288,-0.014l0.286,-0.014l0.287,-0.012l0.286,-0.011l0.285,-0.01l0.285,-0.009l0.284,-0.007l0.284,-0.007l0.283,-0.005l0.283,-0.005l0.282,-0.003l0.282,-0.002l0.28,-0.001l0.281,0Z" style="fill:#fff;stroke:#fff;stroke-width:1px;"/><path id="Curve8" serif:id="Curve" d="M518.035,350.565l0.175,-0.259l0.597,0.645l1.379,0.686l-0.312,0.464l27.428,29.562l-38.087,-13.743l-0.335,0.498l-1.147,-1.032l-0.642,-0.579l-54.037,-48.651l64.981,32.409Z" style="fill:#fff;stroke:#fff;stroke-width:1px;"/><circle id="Ellipse3" serif:id="Ellipse" cx="512.304" cy="358.478" r="19.796" style="fill:#fff;stroke:#fff;stroke-width:1px;"/></g><g id="Group5" serif:id="Group"><circle id="Ellipse4" serif:id="Ellipse" cx="639.637" cy="338.682" r="19.582" style="fill:#e95c00;"/><circle id="Ellipse5" serif:id="Ellipse" cx="693.102" cy="338.896" r="11.389" style="fill:#e95c00;"/><circle id="Ellipse6" serif:id="Ellipse" cx="384.363" cy="338.682" r="19.582" style="fill:#e95c00;"/><circle id="Ellipse7" serif:id="Ellipse" cx="330.898" cy="338.896" r="11.389" style="fill:#e95c00;"/></g></g></g></svg>